ply
format ascii 1.0
comment Created by Blender 2.82 (sub 7) - www.blender.org, source file: 'tree03.blend'
element vertex 576
property float x
property float y
property float z
property float nx
property float ny
property float nz
property float s
property float t
element face 130
property list uchar uint vertex_indices
end_header
6.909288 0.511198 0.782396 0.497499 0.861694 0.099889 1.000000 0.748840
6.975811 0.373582 1.638223 0.497499 0.861694 0.099889 1.000000 1.000000
7.299342 0.186791 1.638223 0.497499 0.861694 0.099889 0.833333 1.000000
7.332204 0.267027 0.782396 0.497499 0.861694 0.099889 0.833333 0.748840
7.332204 0.267027 0.782396 0.999264 -0.000001 0.038370 0.833333 0.748840
7.299342 0.186791 1.638223 0.999264 -0.000001 0.038370 0.833333 1.000000
7.299342 -0.186791 1.638223 0.999264 -0.000001 0.038370 0.666667 1.000000
7.332204 -0.221315 0.782396 0.999264 -0.000001 0.038370 0.666667 0.748840
7.332204 -0.221315 0.782396 0.499269 -0.864759 0.054055 0.666667 0.748840
7.299342 -0.186791 1.638223 0.499269 -0.864759 0.054055 0.666667 1.000000
6.975811 -0.373582 1.638223 0.499269 -0.864759 0.054055 0.500000 1.000000
6.909288 -0.465485 0.782396 0.499269 -0.864759 0.054055 0.500000 0.748840
6.909288 -0.465485 0.782396 -0.495709 -0.858593 0.130731 0.500000 0.748840
6.975811 -0.373582 1.638223 -0.495709 -0.858593 0.130731 0.500000 1.000000
6.652279 -0.186791 1.638223 -0.495709 -0.858593 0.130731 0.333333 1.000000
6.486372 -0.221315 0.782396 -0.495709 -0.858593 0.130731 0.333333 0.748840
7.299342 0.186791 1.638223 -0.000000 0.000000 1.000000 0.457846 0.370000
6.975811 0.373582 1.638223 -0.000000 0.000000 1.000000 0.250000 0.490000
6.652279 0.186791 1.638223 -0.000000 0.000000 1.000000 0.042154 0.370000
6.652279 -0.186791 1.638223 -0.000000 0.000000 1.000000 0.042154 0.130000
6.975811 -0.373582 1.638223 -0.000000 0.000000 1.000000 0.250000 0.010000
7.299342 -0.186791 1.638223 -0.000000 0.000000 1.000000 0.457846 0.130000
6.486372 -0.221315 0.782396 -0.981724 0.000000 0.190313 0.333333 0.748840
6.652279 -0.186791 1.638223 -0.981724 0.000000 0.190313 0.333333 1.000000
6.652279 0.186791 1.638223 -0.981724 0.000000 0.190313 0.166667 1.000000
6.486372 0.267027 0.782396 -0.981724 0.000000 0.190313 0.166667 0.748840
6.486372 0.267027 0.782396 -0.492252 0.852606 0.175360 0.166667 0.748840
6.652279 0.186791 1.638223 -0.492252 0.852606 0.175360 0.166667 1.000000
6.975811 0.373582 1.638223 -0.492252 0.852606 0.175360 -0.000000 1.000000
6.909288 0.511198 0.782396 -0.492252 0.852606 0.175360 -0.000000 0.748840
6.975811 0.602041 -0.037641 0.000000 0.000000 -1.000000 0.750000 0.490000
7.497194 0.301021 -0.037641 0.000000 0.000000 -1.000000 0.957846 0.370000
7.497194 -0.301021 -0.037641 0.000000 0.000000 -1.000000 0.957846 0.130000
6.975811 -0.602041 -0.037641 0.000000 0.000000 -1.000000 0.750000 0.010000
6.454427 -0.301021 -0.037641 0.000000 0.000000 -1.000000 0.542154 0.130000
6.454427 0.301021 -0.037641 0.000000 0.000000 -1.000000 0.542154 0.370000
6.454427 0.301021 -0.037641 -0.499235 0.864701 0.055293 0.166667 0.500000
6.486372 0.267027 0.782396 -0.499235 0.864701 0.055293 0.166667 0.748840
6.909288 0.511198 0.782396 -0.499235 0.864701 0.055293 -0.000000 0.748840
6.975811 0.602041 -0.037641 -0.499235 0.864701 0.055293 -0.000000 0.500000
6.454427 -0.301021 -0.037641 -0.999242 0.000000 0.038926 0.333333 0.500000
6.486372 -0.221315 0.782396 -0.999242 0.000000 0.038926 0.333333 0.748840
6.486372 0.267027 0.782396 -0.999242 0.000000 0.038926 0.166667 0.748840
6.454427 0.301021 -0.037641 -0.999242 0.000000 0.038926 0.166667 0.500000
6.975811 -0.602041 -0.037641 -0.497336 -0.861410 0.103101 0.500000 0.500000
6.909288 -0.465485 0.782396 -0.497336 -0.861410 0.103101 0.500000 0.748840
6.486372 -0.221315 0.782396 -0.497336 -0.861410 0.103101 0.333333 0.748840
6.454427 -0.301021 -0.037641 -0.497336 -0.861410 0.103101 0.333333 0.500000
7.497194 -0.301021 -0.037641 0.491677 -0.851610 0.181699 0.666667 0.500000
7.332204 -0.221315 0.782396 0.491677 -0.851610 0.181699 0.666667 0.748840
6.909288 -0.465485 0.782396 0.491677 -0.851610 0.181699 0.500000 0.748840
6.975811 -0.602041 -0.037641 0.491677 -0.851610 0.181699 0.500000 0.500000
7.497194 0.301021 -0.037641 0.980354 0.000000 0.197245 0.833333 0.500000
7.332204 0.267027 0.782396 0.980354 0.000000 0.197245 0.833333 0.748840
7.332204 -0.221315 0.782396 0.980354 0.000000 0.197245 0.666667 0.748840
7.497194 -0.301021 -0.037641 0.980354 0.000000 0.197245 0.666667 0.500000
6.975811 0.602041 -0.037641 0.495406 0.858069 0.135245 1.000000 0.500000
6.909288 0.511198 0.782396 0.495406 0.858069 0.135245 1.000000 0.748840
7.332204 0.267027 0.782396 0.495406 0.858069 0.135245 0.833333 0.748840
7.497194 0.301021 -0.037641 0.495406 0.858069 0.135245 0.833333 0.500000
7.012264 1.338024 1.117893 0.393318 0.854228 0.339993 1.000000 0.500000
6.975811 0.597201 3.173291 0.393318 0.854228 0.339993 1.000000 1.000000
7.493002 0.298601 3.173291 0.393318 0.854228 0.339993 0.833333 1.000000
8.195148 0.742554 1.397514 0.393318 0.854228 0.339993 0.833333 0.500000
8.195148 0.742554 1.397514 0.935372 -0.029740 0.352412 0.833333 0.500000
7.493002 0.298601 3.173291 0.935372 -0.029740 0.352412 0.833333 1.000000
7.493002 -0.298601 3.173291 0.935372 -0.029740 0.352412 0.666667 1.000000
8.185986 -0.698695 1.248466 0.935372 -0.029740 0.352412 0.666667 0.500000
8.189073 -0.213049 1.298690 0.935372 -0.029740 0.352412 0.722827 0.500000
8.126101 0.023321 1.497730 0.935372 -0.029740 0.352412 0.750113 0.546968
8.191639 0.190590 1.340432 0.935372 -0.029740 0.352412 0.769504 0.500000
8.185986 -0.698695 1.248466 0.470440 -0.814826 0.338740 0.666667 0.500000
7.493002 -0.298601 3.173291 0.470440 -0.814826 0.338740 0.666667 1.000000
6.975811 -0.597201 3.173291 0.470440 -0.814826 0.338740 0.500000 1.000000
6.975811 -1.397389 1.248466 0.470440 -0.814826 0.338740 0.500000 0.500000
6.363786 -1.044718 1.404923 -0.514286 -0.779940 0.356656 0.424282 0.500000
6.740845 -0.461544 3.173291 -0.514286 -0.779940 0.356656 0.424282 1.000000
6.458619 -0.298600 3.173291 -0.514286 -0.779940 0.356656 0.333333 1.000000
5.765636 -0.698694 1.248466 -0.514286 -0.779940 0.356656 0.333333 0.500000
7.493002 0.298601 3.173291 0.000000 0.000000 1.000000 0.457846 0.370000
6.975811 0.597201 3.173291 0.000000 0.000000 1.000000 0.250000 0.490000
6.764447 0.475170 3.173291 0.000000 0.000000 1.000000 0.165058 0.440959
6.458619 0.298600 3.173291 0.000000 0.000000 1.000000 0.042154 0.370000
6.458619 -0.298600 3.173291 0.000000 0.000000 1.000000 0.042154 0.130000
6.740845 -0.461544 3.173291 0.000000 0.000000 1.000000 0.155573 0.064517
6.975811 -0.597201 3.173291 0.000000 0.000000 1.000000 0.250000 0.010000
7.493002 -0.298601 3.173291 0.000000 0.000000 1.000000 0.457846 0.130000
5.765636 -0.698694 1.248466 -0.939851 -0.006100 0.341530 0.333333 0.500000
6.458619 -0.298600 3.173291 -0.939851 -0.006100 0.341530 0.333333 1.000000
6.458619 0.298600 3.173291 -0.939851 -0.006100 0.341530 0.166667 1.000000
5.779099 0.817594 1.323264 -0.939851 -0.006100 0.341530 0.166667 0.500000
6.464536 1.153342 1.306543 -0.277273 0.897371 0.343285 0.068113 0.500000
6.764447 0.475170 3.173291 -0.277273 0.897371 0.343285 0.068113 1.000000
6.975811 0.597201 3.173291 -0.277273 0.897371 0.343285 -0.000000 1.000000
7.012264 1.338024 1.117893 -0.277273 0.897371 0.343285 -0.000000 0.500000
6.117589 -0.495494 1.248466 0.999859 -0.006951 0.015294 0.602601 0.164899
6.131051 0.614394 1.323264 0.999859 -0.006951 0.015294 0.602601 0.335101
6.117589 0.495494 1.698897 0.999859 -0.006951 0.015294 0.602601 0.335101
6.117589 -0.495494 1.698897 0.999859 -0.006951 0.015294 0.602601 0.164899
7.843195 0.539354 1.397514 0.209961 -0.121221 -0.970166 0.897398 0.335101
7.012264 0.931624 1.117893 0.209961 -0.121221 -0.970166 0.750000 0.420201
7.012264 1.338024 1.117893 0.209961 -0.121221 -0.970166 0.750000 0.490000
8.195148 0.742554 1.397514 0.209961 -0.121221 -0.970166 0.957846 0.370000
7.834032 -0.495495 1.248466 0.047071 0.117222 -0.991989 0.897399 0.164899
7.836577 -0.208090 1.289861 0.047071 0.117222 -0.991989 0.897399 0.212169
8.189073 -0.213049 1.298690 0.047071 0.117222 -0.991989 0.957846 0.210871
8.185986 -0.698695 1.248466 0.047071 0.117222 -0.991989 0.957846 0.130000
6.975811 -0.990989 1.248466 -0.000000 0.000000 -1.000000 0.750000 0.079799
7.834032 -0.495495 1.248466 -0.000000 0.000000 -1.000000 0.897399 0.164899
8.185986 -0.698695 1.248466 -0.000000 0.000000 -1.000000 0.957846 0.130000
6.975811 -1.397389 1.248466 -0.000000 0.000000 -1.000000 0.750000 0.010000
6.523682 -0.730634 1.404923 -0.251890 0.055901 -0.966140 0.683035 0.118461
6.975811 -0.990989 1.248466 -0.251890 0.055901 -0.966140 0.750000 0.079799
6.975811 -1.397389 1.248466 -0.251890 0.055901 -0.966140 0.750000 0.010000
6.363786 -1.044718 1.404923 -0.251890 0.055901 -0.966140 0.655573 0.064517
6.131051 0.614394 1.323264 0.000000 0.056871 -0.998382 0.602601 0.335101
6.117589 -0.495494 1.248466 0.000000 0.056871 -0.998382 0.602601 0.164899
5.765636 -0.698694 1.248466 0.000000 0.056871 -0.998382 0.542154 0.130000
5.779099 0.817594 1.323264 0.000000 0.056871 -0.998382 0.542154 0.370000
6.608371 0.829984 1.306543 -0.019876 -0.018715 -0.999627 0.689762 0.385423
6.131051 0.614394 1.323264 -0.019876 -0.018715 -0.999627 0.602601 0.335101
5.779099 0.817594 1.323264 -0.019876 -0.018715 -0.999627 0.542154 0.370000
6.464536 1.153342 1.306543 -0.019876 -0.018715 -0.999627 0.665058 0.440959
6.975811 0.990989 1.698897 0.000000 0.000000 -1.000000 0.750000 0.420201
7.834032 0.495495 1.698897 0.000000 0.000000 -1.000000 0.897398 0.335101
7.834032 -0.495495 1.698897 0.000000 0.000000 -1.000000 0.897399 0.164899
6.975811 -0.990989 1.698897 0.000000 0.000000 -1.000000 0.750000 0.079799
6.585911 -0.765881 1.698897 0.000000 0.000000 -1.000000 0.683035 0.118461
6.117589 -0.495494 1.698897 0.000000 0.000000 -1.000000 0.602601 0.164899
6.117589 0.495494 1.698897 0.000000 0.000000 -1.000000 0.602601 0.335101
6.625076 0.788492 1.698897 0.000000 0.000000 -1.000000 0.689762 0.385423
7.834032 -0.495495 1.248466 -0.500000 0.866025 0.000000 0.897399 0.164899
6.975811 -0.990989 1.248466 -0.500000 0.866025 0.000000 0.750000 0.079799
6.975811 -0.990989 1.698897 -0.500000 0.866025 0.000000 0.750000 0.079799
7.834032 -0.495495 1.698897 -0.500000 0.866025 0.000000 0.897399 0.164899
7.012264 0.931624 1.117893 -0.464118 -0.885733 -0.008429 0.750000 0.420201
7.843195 0.539354 1.397514 -0.464118 -0.885733 -0.008429 0.897398 0.335101
7.834032 0.495495 1.698897 -0.464118 -0.885733 -0.008429 0.897398 0.335101
6.975811 0.990989 1.698897 -0.464118 -0.885733 -0.008429 0.750000 0.420201
6.608371 0.829984 1.306543 0.378998 -0.925069 0.024676 0.689762 0.385423
7.012264 0.931624 1.117893 0.378998 -0.925069 0.024676 0.750000 0.420201
6.975811 0.990989 1.698897 0.378998 -0.925069 0.024676 0.750000 0.420201
6.625076 0.788492 1.698897 0.378998 -0.925069 0.024676 0.689762 0.385423
6.523682 -0.730634 1.404923 0.500622 0.865666 -0.000862 0.683035 0.118461
6.117589 -0.495494 1.248466 0.500622 0.865666 -0.000862 0.602601 0.164899
6.117589 -0.495494 1.698897 0.500622 0.865666 -0.000862 0.602601 0.164899
6.585911 -0.765881 1.698897 0.500622 0.865666 -0.000862 0.683035 0.118461
7.843195 0.539354 1.397514 -0.999902 0.005053 -0.013052 0.897398 0.335101
7.840551 0.240726 1.354503 -0.999902 0.005053 -0.013052 0.897399 0.285985
7.839136 0.080900 1.485496 -0.999902 0.005053 -0.013052 0.897398 0.261396
7.836577 -0.208090 1.289861 -0.999902 0.005053 -0.013052 0.897399 0.212169
7.834032 -0.495495 1.248466 -0.999902 0.005053 -0.013052 0.897399 0.164899
7.834032 -0.495495 1.698897 -0.999902 0.005053 -0.013052 0.897399 0.164899
7.834032 0.495495 1.698897 -0.999902 0.005053 -0.013052 0.897398 0.335101
6.975811 -0.990989 1.248466 0.499373 0.866387 -0.000724 0.750000 0.079799
6.523682 -0.730634 1.404923 0.499373 0.866387 -0.000724 0.683035 0.118461
6.585911 -0.765881 1.698897 0.499373 0.866387 -0.000724 0.683035 0.118461
6.975811 -0.990989 1.698897 0.499373 0.866387 -0.000724 0.750000 0.079799
6.117589 -0.495494 1.248466 0.190859 -0.188853 -0.963279 0.602601 0.164899
6.523682 -0.730634 1.404923 0.190859 -0.188853 -0.963279 0.683035 0.118461
6.363786 -1.044718 1.404923 0.190859 -0.188853 -0.963279 0.655573 0.064517
5.765636 -0.698694 1.248466 0.190859 -0.188853 -0.963279 0.542154 0.130000
6.975811 -1.397389 1.248466 -0.416572 -0.836552 0.355878 0.500000 0.500000
6.975811 -0.597201 3.173291 -0.416572 -0.836552 0.355878 0.500000 1.000000
6.740845 -0.461544 3.173291 -0.416572 -0.836552 0.355878 0.424282 1.000000
6.363786 -1.044718 1.404923 -0.416572 -0.836552 0.355878 0.424282 0.500000
6.131051 0.614394 1.323264 0.448501 -0.874525 -0.184536 0.602601 0.335101
6.608371 0.829984 1.306543 0.448501 -0.874525 -0.184536 0.689762 0.385423
6.625076 0.788492 1.698897 0.448501 -0.874525 -0.184536 0.689762 0.385423
6.117589 0.495494 1.698897 0.448501 -0.874525 -0.184536 0.602601 0.335101
7.012264 0.931624 1.117893 -0.349702 -0.068926 -0.934322 0.750000 0.420201
6.608371 0.829984 1.306543 -0.349702 -0.068926 -0.934322 0.689762 0.385423
6.464536 1.153342 1.306543 -0.349702 -0.068926 -0.934322 0.665058 0.440959
7.012264 1.338024 1.117893 -0.349702 -0.068926 -0.934322 0.750000 0.490000
5.779099 0.817594 1.323264 -0.420300 0.825518 0.376653 0.166667 0.500000
6.458619 0.298600 3.173291 -0.420300 0.825518 0.376653 0.166667 1.000000
6.764447 0.475170 3.173291 -0.420300 0.825518 0.376653 0.068113 1.000000
6.464536 1.153342 1.306543 -0.420300 0.825518 0.376653 0.068113 0.500000
8.126101 0.023321 1.497730 0.085220 0.604699 -0.791882 0.750113 0.546968
8.189073 -0.213049 1.298690 0.085220 0.604699 -0.791882 0.722827 0.500000
7.836577 -0.208090 1.289861 0.085220 0.604699 -0.791882 0.897399 0.212169
7.839136 0.080900 1.485496 0.085220 0.604699 -0.791882 0.897398 0.261396
7.839136 0.080900 1.485496 -0.110939 -0.644246 -0.756729 0.897398 0.261396
7.840551 0.240726 1.354503 -0.110939 -0.644246 -0.756729 0.897399 0.285985
8.191639 0.190590 1.340432 -0.110939 -0.644246 -0.756729 0.957846 0.278086
8.126101 0.023321 1.497730 -0.110939 -0.644246 -0.756729 0.750113 0.546968
8.191639 0.190590 1.340432 -0.045344 0.117071 -0.992088 0.957846 0.278086
7.840551 0.240726 1.354503 -0.045344 0.117071 -0.992088 0.897399 0.285985
7.843195 0.539354 1.397514 -0.045344 0.117071 -0.992088 0.897398 0.335101
8.195148 0.742554 1.397514 -0.045344 0.117071 -0.992088 0.957846 0.370000
7.432042 1.034457 2.630551 0.459635 0.825613 0.327260 0.916667 0.500000
7.294006 0.368046 4.542999 0.459635 0.825613 0.327260 0.916667 1.000000
7.532449 0.225824 4.529556 0.459635 0.825613 0.327260 0.833333 1.000000
8.109239 0.635719 2.722721 0.459635 0.825613 0.327260 0.833333 0.500000
8.109239 0.635719 2.722721 0.957644 -0.055633 0.282529 0.833333 0.500000
7.532449 0.225824 4.529556 0.957644 -0.055633 0.282529 0.833333 1.000000
7.524241 -0.329862 4.515466 0.957644 -0.055633 0.282529 0.666667 1.000000
8.056494 -0.651766 2.580477 0.957644 -0.055633 0.282529 0.666667 0.500000
8.056494 -0.651766 2.580477 0.500173 -0.818536 0.282536 0.666667 0.500000
7.524241 -0.329862 4.515466 0.500173 -0.818536 0.282536 0.666667 1.000000
7.039146 -0.601103 4.528262 0.500173 -0.818536 0.282536 0.500000 1.000000
6.954960 -1.299204 2.719693 0.500173 -0.818536 0.282536 0.500000 0.500000
7.334051 -1.076389 2.671782 0.500173 -0.818536 0.282536 0.557358 0.500000
7.472474 -0.838752 3.092606 0.500173 -0.818536 0.282536 0.587538 0.619060
7.666308 -0.881102 2.629790 0.500173 -0.818536 0.282536 0.607630 0.500000
6.109383 -0.751816 2.880090 -0.473499 -0.812865 0.339189 0.385141 0.500000
6.710497 -0.405076 4.546791 -0.473499 -0.812865 0.339189 0.385141 1.000000
6.562260 -0.316658 4.555148 -0.473499 -0.812865 0.339189 0.333333 1.000000
5.839095 -0.633632 2.782604 -0.473499 -0.812865 0.339189 0.333333 0.500000
7.532449 0.225824 4.529556 0.040846 -0.025930 0.998829 0.457846 0.370000
7.294006 0.368046 4.542999 0.040846 -0.025930 0.998829 0.353923 0.430000
7.055563 0.510268 4.556442 0.040846 -0.025930 0.998829 0.250000 0.490000
6.570468 0.239027 4.569238 0.040846 -0.025930 0.998829 0.042154 0.370000
6.562260 -0.316658 4.555148 0.040846 -0.025930 0.998829 0.042154 0.130000
6.710497 -0.405076 4.546791 0.040846 -0.025930 0.998829 0.106762 0.092699
7.039146 -0.601103 4.528262 0.040846 -0.025930 0.998829 0.250000 0.010000
7.524241 -0.329862 4.515466 0.040846 -0.025930 0.998829 0.457846 0.130000
5.839095 -0.633632 2.782604 -0.926120 0.003902 0.377209 0.333333 0.500000
6.562260 -0.316658 4.555148 -0.926120 0.003902 0.377209 0.333333 1.000000
6.570468 0.239027 4.569238 -0.926120 0.003902 0.377209 0.166667 1.000000
5.813622 0.595503 2.707666 -0.926120 0.003902 0.377209 0.166667 0.500000
5.813622 0.595503 2.707666 -0.482492 0.798087 0.360915 0.166667 0.500000
6.570468 0.239027 4.569238 -0.482492 0.798087 0.360915 0.166667 1.000000
7.055563 0.510268 4.556442 -0.482492 0.798087 0.360915 -0.000000 1.000000
6.993373 1.301291 2.785632 -0.482492 0.798087 0.360915 -0.000000 0.500000
6.169206 -0.449051 2.773896 0.996480 0.006919 -0.083548 0.602601 0.164899
6.138147 0.401936 2.689369 0.996480 0.006919 -0.083548 0.602601 0.335101
6.199953 0.462176 3.216084 0.996480 0.006919 -0.083548 0.602601 0.335101
6.186332 -0.459923 3.192703 0.996480 0.006919 -0.083548 0.602601 0.164899
7.264194 0.753092 2.630111 -0.332543 0.101707 -0.937588 0.823699 0.377651
6.987788 0.923142 2.776043 -0.332543 0.101707 -0.937588 0.750000 0.420201
6.993373 1.301291 2.785632 -0.332543 0.101707 -0.937588 0.750000 0.490000
7.432042 1.034457 2.630551 -0.332543 0.101707 -0.937588 0.853923 0.430000
7.731969 -0.458199 2.598773 -0.039163 0.125825 -0.991279 0.897399 0.164899
7.779128 0.451138 2.731429 -0.039163 0.125825 -0.991279 0.897398 0.335101
8.109239 0.635719 2.722721 -0.039163 0.125825 -0.991279 0.957846 0.370000
8.056494 -0.651766 2.580477 -0.039163 0.125825 -0.991279 0.957846 0.130000
6.960546 -0.921055 2.729282 -0.146961 0.012746 -0.989060 0.750000 0.079799
7.156325 -0.803587 2.696160 -0.146961 0.012746 -0.989060 0.787408 0.101396
7.334051 -1.076389 2.671782 -0.146961 0.012746 -0.989060 0.821530 0.051298
6.954960 -1.299204 2.719693 -0.146961 0.012746 -0.989060 0.750000 0.010000
6.338616 -0.507065 2.877069 -0.160352 0.070830 -0.984515 0.648420 0.138446
6.960546 -0.921055 2.729282 -0.160352 0.070830 -0.984515 0.750000 0.079799
6.954960 -1.299204 2.719693 -0.160352 0.070830 -0.984515 0.750000 0.010000
6.109383 -0.751816 2.880090 -0.160352 0.070830 -0.984515 0.606762 0.092699
6.138147 0.401936 2.689369 -0.042153 -0.077508 -0.996100 0.602601 0.335101
6.169206 -0.449051 2.773896 -0.042153 -0.077508 -0.996100 0.602601 0.164899
5.839095 -0.633632 2.782604 -0.042153 -0.077508 -0.996100 0.542154 0.130000
5.813622 0.595503 2.707666 -0.042153 -0.077508 -0.996100 0.542154 0.370000
6.987788 0.923142 2.776043 0.038491 0.070090 -0.996798 0.750000 0.420201
6.138147 0.401936 2.689369 0.038491 0.070090 -0.996798 0.602601 0.335101
5.813622 0.595503 2.707666 0.038491 0.070090 -0.996798 0.542154 0.370000
6.993373 1.301291 2.785632 0.038491 0.070090 -0.996798 0.750000 0.490000
7.004914 0.912270 3.194850 -0.040846 0.025930 -0.998829 0.750000 0.420201
7.400584 0.676268 3.172543 -0.040846 0.025930 -0.998829 0.823699 0.377651
7.796255 0.440265 3.150236 -0.040846 0.025930 -0.998829 0.897398 0.335101
7.782634 -0.481833 3.126855 -0.040846 0.025930 -0.998829 0.897399 0.164899
6.977673 -0.931928 3.148089 -0.040846 0.025930 -0.998829 0.750000 0.079799
6.432317 -0.606643 3.178835 -0.040846 0.025930 -0.998829 0.648420 0.138446
6.186332 -0.459923 3.192703 -0.040846 0.025930 -0.998829 0.602601 0.164899
6.199953 0.462176 3.216084 -0.040846 0.025930 -0.998829 0.602601 0.335101
7.731969 -0.458199 2.598773 -0.493174 0.867084 0.070310 0.897399 0.164899
7.445267 -0.630221 2.647277 -0.493174 0.867084 0.070310 0.842617 0.133271
7.349763 -0.705458 3.003798 -0.493174 0.867084 0.070310 0.820863 0.120712
7.156325 -0.803587 2.696160 -0.493174 0.867084 0.070310 0.787408 0.101396
6.960546 -0.921055 2.729282 -0.493174 0.867084 0.070310 0.750000 0.079799
6.977673 -0.931928 3.148089 -0.493174 0.867084 0.070310 0.750000 0.079799
7.782634 -0.481833 3.126855 -0.493174 0.867084 0.070310 0.897399 0.164899
7.264194 0.753092 2.630111 -0.508813 -0.860873 0.002721 0.823699 0.377651
7.779128 0.451138 2.731429 -0.508813 -0.860873 0.002721 0.897398 0.335101
7.796255 0.440265 3.150236 -0.508813 -0.860873 0.002721 0.897398 0.335101
7.400584 0.676268 3.172543 -0.508813 -0.860873 0.002721 0.823699 0.377651
6.138147 0.401936 2.689369 0.506164 -0.862433 0.002774 0.602601 0.335101
6.987788 0.923142 2.776043 0.506164 -0.862433 0.002774 0.750000 0.420201
7.004914 0.912270 3.194850 0.506164 -0.862433 0.002774 0.750000 0.420201
6.199953 0.462176 3.216084 0.506164 -0.862433 0.002774 0.602601 0.335101
6.338616 -0.507065 2.877069 0.428410 0.900698 0.072169 0.648420 0.138446
6.169206 -0.449051 2.773896 0.428410 0.900698 0.072169 0.602601 0.164899
6.186332 -0.459923 3.192703 0.428410 0.900698 0.072169 0.602601 0.164899
6.432317 -0.606643 3.178835 0.428410 0.900698 0.072169 0.648420 0.138446
7.779128 0.451138 2.731429 -0.997015 0.026923 0.072361 0.897398 0.335101
7.731969 -0.458199 2.598773 -0.997015 0.026923 0.072361 0.897399 0.164899
7.782634 -0.481833 3.126855 -0.997015 0.026923 0.072361 0.897399 0.164899
7.796255 0.440265 3.150236 -0.997015 0.026923 0.072361 0.897398 0.335101
6.987788 0.923142 2.776043 -0.516322 -0.856383 0.004330 0.750000 0.420201
7.264194 0.753092 2.630111 -0.516322 -0.856383 0.004330 0.823699 0.377651
7.400584 0.676268 3.172543 -0.516322 -0.856383 0.004330 0.823699 0.377651
7.004914 0.912270 3.194850 -0.516322 -0.856383 0.004330 0.750000 0.420201
7.779128 0.451138 2.731429 0.092250 -0.116135 -0.988940 0.897398 0.335101
7.264194 0.753092 2.630111 0.092250 -0.116135 -0.988940 0.823699 0.377651
7.432042 1.034457 2.630551 0.092250 -0.116135 -0.988940 0.853923 0.430000
8.109239 0.635719 2.722721 0.092250 -0.116135 -0.988940 0.957846 0.370000
6.993373 1.301291 2.785632 0.546975 0.774510 0.317730 1.000000 0.500000
7.055563 0.510268 4.556442 0.546975 0.774510 0.317730 1.000000 1.000000
7.294006 0.368046 4.542999 0.546975 0.774510 0.317730 0.916667 1.000000
7.432042 1.034457 2.630551 0.546975 0.774510 0.317730 0.916667 0.500000
6.960546 -0.921055 2.729282 0.539486 0.840743 0.045895 0.750000 0.079799
6.338616 -0.507065 2.877069 0.539486 0.840743 0.045895 0.648420 0.138446
6.432317 -0.606643 3.178835 0.539486 0.840743 0.045895 0.648420 0.138446
6.977673 -0.931928 3.148089 0.539486 0.840743 0.045895 0.750000 0.079799
6.169206 -0.449051 2.773896 0.261471 -0.365059 -0.893512 0.602601 0.164899
6.338616 -0.507065 2.877069 0.261471 -0.365059 -0.893512 0.648420 0.138446
6.109383 -0.751816 2.880090 0.261471 -0.365059 -0.893512 0.606762 0.092699
5.839095 -0.633632 2.782604 0.261471 -0.365059 -0.893512 0.542154 0.130000
6.954960 -1.299204 2.719693 -0.466203 -0.817662 0.337763 0.500000 0.500000
7.039146 -0.601103 4.528262 -0.466203 -0.817662 0.337763 0.500000 1.000000
6.710497 -0.405076 4.546791 -0.466203 -0.817662 0.337763 0.385141 1.000000
6.109383 -0.751816 2.880090 -0.466203 -0.817662 0.337763 0.385141 0.500000
7.349763 -0.705458 3.003798 0.718343 0.446843 -0.533212 0.820863 0.120712
7.472474 -0.838752 3.092606 0.718343 0.446843 -0.533212 0.587538 0.619060
7.334051 -1.076389 2.671782 0.718343 0.446843 -0.533212 0.821530 0.051298
7.156325 -0.803587 2.696160 0.718343 0.446843 -0.533212 0.787408 0.101396
7.472474 -0.838752 3.092606 -0.691749 -0.669301 -0.271147 0.587538 0.619060
7.349763 -0.705458 3.003798 -0.691749 -0.669301 -0.271147 0.820863 0.120712
7.445267 -0.630221 2.647277 -0.691749 -0.669301 -0.271147 0.842617 0.133271
7.666308 -0.881102 2.629790 -0.691749 -0.669301 -0.271147 0.607630 0.500000
7.666308 -0.881102 2.629790 -0.110411 -0.055638 -0.992327 0.884223 0.087494
7.445267 -0.630221 2.647277 -0.110411 -0.055638 -0.992327 0.842617 0.133271
7.731969 -0.458199 2.598773 -0.110411 -0.055638 -0.992327 0.897399 0.164899
8.056494 -0.651766 2.580477 -0.110411 -0.055638 -0.992327 0.957846 0.130000
7.552114 0.690854 3.963137 0.412460 0.886474 0.209856 0.875608 0.500000
7.163810 0.450071 5.747238 0.412460 0.886474 0.209856 0.875608 1.000000
7.260999 0.401813 5.756271 0.412460 0.886474 0.209856 0.833333 1.000000
7.815046 0.550409 4.043427 0.412460 0.886474 0.209856 0.833333 0.500000
7.815046 0.550409 4.043427 0.925845 0.173585 0.335676 0.833333 0.500000
7.260999 0.401813 5.756271 0.925845 0.173585 0.335676 0.833333 1.000000
7.286220 -0.025293 5.799713 0.925845 0.173585 0.335676 0.666667 1.000000
8.077970 -0.494258 3.966321 0.925845 0.173585 0.335676 0.666667 0.500000
8.077970 -0.494258 3.966321 0.527457 -0.737197 0.422292 0.666667 0.500000
7.286220 -0.025293 5.799713 0.527457 -0.737197 0.422292 0.666667 1.000000
6.928271 -0.262140 5.807541 0.527457 -0.737197 0.422292 0.500000 1.000000
7.086000 -1.105712 4.163702 0.527457 -0.737197 0.422292 0.500000 0.500000
6.561124 -0.914379 3.981672 -0.522240 -0.773416 0.359296 0.417641 0.500000
6.738926 -0.168123 5.789943 -0.522240 -0.773416 0.359296 0.417641 1.000000
6.545102 -0.071882 5.771928 -0.522240 -0.773416 0.359296 0.333333 1.000000
6.139919 -0.557989 4.080061 -0.522240 -0.773416 0.359296 0.333333 0.500000
7.260999 0.401813 5.756271 -0.043468 0.098554 0.994182 0.457846 0.370000
7.163810 0.450071 5.747238 -0.043468 0.098554 0.994182 0.405127 0.400438
6.877830 0.592071 5.720657 -0.043468 0.098554 0.994182 0.250000 0.490000
6.718320 0.486527 5.724146 -0.043468 0.098554 0.994182 0.157380 0.436526
6.519881 0.355223 5.728486 -0.043468 0.098554 0.994182 0.042154 0.370000
6.545102 -0.071882 5.771928 -0.043468 0.098554 0.994182 0.042154 0.130000
6.738926 -0.168123 5.789943 -0.043468 0.098554 0.994182 0.147292 0.069299
6.928271 -0.262140 5.807541 -0.043468 0.098554 0.994182 0.250000 0.010000
7.286220 -0.025293 5.799713 -0.043468 0.098554 0.994182 0.457846 0.130000
6.139919 -0.557989 4.080061 -0.971042 -0.024882 0.237610 0.333333 0.500000
6.545102 -0.071882 5.771928 -0.971042 -0.024882 0.237610 0.333333 1.000000
6.519881 0.355223 5.728486 -0.971042 -0.024882 0.237610 0.166667 1.000000
6.076010 0.411174 3.905470 -0.971042 -0.024882 0.237610 0.166667 0.500000
6.410906 0.729962 4.025420 -0.446595 0.873440 0.194053 0.074270 0.500000
6.718320 0.486527 5.724146 -0.446595 0.873440 0.194053 0.074270 1.000000
6.877830 0.592071 5.720657 -0.446595 0.873440 0.194053 -0.000000 1.000000
6.949893 1.030078 3.810542 -0.446595 0.873440 0.194053 -0.000000 0.500000
6.383506 -0.396812 4.074734 0.997369 0.067740 0.025832 0.602601 0.164899
6.336761 0.281702 3.929706 0.997369 0.067740 0.025832 0.602601 0.335101
6.324237 0.351412 4.401017 0.997369 0.067740 0.025832 0.602601 0.335101
6.366088 -0.357322 4.473104 0.997369 0.067740 0.025832 0.602601 0.164899
7.374665 0.496837 3.974611 0.163337 -0.185198 -0.969032 0.860011 0.356686
7.284392 0.550564 3.944822 0.163337 -0.185198 -0.969032 0.835647 0.370753
7.363516 0.797089 3.915349 0.163337 -0.185198 -0.969032 0.856546 0.428486
7.552114 0.690854 3.963137 0.163337 -0.185198 -0.969032 0.905127 0.400438
7.817220 -0.364786 3.942086 0.030326 0.110079 -0.993460 0.897399 0.164899
7.571459 0.389232 4.048754 0.030326 0.110079 -0.993460 0.897398 0.335101
7.815046 0.550409 4.043427 0.030326 0.110079 -0.993460 0.957846 0.370000
8.077970 -0.494258 3.966321 0.030326 0.110079 -0.993460 0.957846 0.130000
7.068838 -0.815064 4.134140 -0.101295 -0.192006 -0.976152 0.750000 0.079799
7.817220 -0.364786 3.942086 -0.101295 -0.192006 -0.976152 0.897399 0.164899
8.077970 -0.494258 3.966321 -0.101295 -0.192006 -0.976152 0.957846 0.130000
7.086000 -1.105712 4.163702 -0.101295 -0.192006 -0.976152 0.750000 0.010000
6.672812 -0.687709 3.964085 0.310123 -0.142337 -0.939981 0.677162 0.121852
7.068838 -0.815064 4.134140 0.310123 -0.142337 -0.939981 0.750000 0.079799
7.086000 -1.105712 4.163702 0.310123 -0.142337 -0.939981 0.750000 0.010000
6.561124 -0.914379 3.981672 0.310123 -0.142337 -0.939981 0.647292 0.069299
6.336761 0.281702 3.929706 0.048544 -0.187065 -0.981147 0.602601 0.335101
6.383506 -0.396812 4.074734 0.048544 -0.187065 -0.981147 0.602601 0.164899
6.139919 -0.557989 4.080061 0.048544 -0.187065 -0.981147 0.542154 0.130000
6.076010 0.411174 3.905470 0.048544 -0.187065 -0.981147 0.542154 0.370000
6.536616 0.511137 4.052608 0.269111 0.158335 -0.950005 0.684316 0.382279
6.336761 0.281702 3.929706 0.269111 0.158335 -0.950005 0.602601 0.335101
6.076010 0.411174 3.905470 0.269111 0.158335 -0.950005 0.542154 0.370000
6.410906 0.729962 4.025420 0.269111 0.158335 -0.950005 0.657380 0.436526
6.918213 0.744435 4.388027 0.043469 -0.098554 -0.994182 0.750000 0.420201
7.392765 0.508802 4.432134 0.043469 -0.098554 -0.994182 0.860011 0.356686
7.554041 0.428723 4.447124 0.043469 -0.098554 -0.994182 0.897398 0.335101
7.595892 -0.280012 4.519211 0.043469 -0.098554 -0.994182 0.897399 0.164899
7.001915 -0.673034 4.532201 0.043469 -0.098554 -0.994182 0.750000 0.079799
6.687718 -0.517023 4.502998 0.043469 -0.098554 -0.994182 0.677162 0.121852
6.366088 -0.357322 4.473104 0.043469 -0.098554 -0.994182 0.602601 0.164899
6.324237 0.351412 4.401017 0.043469 -0.098554 -0.994182 0.602601 0.335101
6.653525 0.569296 4.393816 0.043469 -0.098554 -0.994182 0.684316 0.382279
7.817220 -0.364786 3.942086 -0.537092 0.772646 -0.338454 0.897399 0.164899
7.068838 -0.815064 4.134140 -0.537092 0.772646 -0.338454 0.750000 0.079799
7.001915 -0.673034 4.532201 -0.537092 0.772646 -0.338454 0.750000 0.079799
7.595892 -0.280012 4.519211 -0.537092 0.772646 -0.338454 0.897399 0.164899
7.374665 0.496837 3.974611 -0.473950 -0.878942 0.053219 0.860011 0.356686
7.571459 0.389232 4.048754 -0.473950 -0.878942 0.053219 0.897398 0.335101
7.554041 0.428723 4.447124 -0.473950 -0.878942 0.053219 0.897398 0.335101
7.392765 0.508802 4.432134 -0.473950 -0.878942 0.053219 0.860011 0.356686
6.536616 0.511137 4.052608 0.507082 -0.861607 0.022390 0.684316 0.382279
6.967056 0.739429 3.840105 0.507082 -0.861607 0.022390 0.750000 0.420201
6.918213 0.744435 4.388027 0.507082 -0.861607 0.022390 0.750000 0.420201
6.653525 0.569296 4.393816 0.507082 -0.861607 0.022390 0.684316 0.382279
6.672812 -0.687709 3.964085 0.568640 0.802978 -0.178536 0.677162 0.121852
6.383506 -0.396812 4.074734 0.568640 0.802978 -0.178536 0.602601 0.164899
6.366088 -0.357322 4.473104 0.568640 0.802978 -0.178536 0.602601 0.164899
6.687718 -0.517023 4.502998 0.568640 0.802978 -0.178536 0.677162 0.121852
7.571459 0.389232 4.048754 -0.959943 -0.183747 -0.211533 0.897398 0.335101
7.817220 -0.364786 3.942086 -0.959943 -0.183747 -0.211533 0.897399 0.164899
7.595892 -0.280012 4.519211 -0.959943 -0.183747 -0.211533 0.897399 0.164899
7.554041 0.428723 4.447124 -0.959943 -0.183747 -0.211533 0.897398 0.335101
6.967056 0.739429 3.840105 -0.467674 -0.883897 -0.002685 0.750000 0.420201
7.025120 0.704872 3.859265 -0.467674 -0.883897 -0.002685 0.765671 0.411153
7.142010 0.640088 4.214303 -0.467674 -0.883897 -0.002685 0.799783 0.391459
7.284392 0.550564 3.944822 -0.467674 -0.883897 -0.002685 0.835647 0.370753
7.374665 0.496837 3.974611 -0.467674 -0.883897 -0.002685 0.860011 0.356686
7.392765 0.508802 4.432134 -0.467674 -0.883897 -0.002685 0.860011 0.356686
6.918213 0.744435 4.388027 -0.467674 -0.883897 -0.002685 0.750000 0.420201
7.571459 0.389232 4.048754 0.179720 -0.257939 -0.949299 0.897398 0.335101
7.374665 0.496837 3.974611 0.179720 -0.257939 -0.949299 0.860011 0.356686
7.552114 0.690854 3.963137 0.179720 -0.257939 -0.949299 0.905127 0.400438
7.815046 0.550409 4.043427 0.179720 -0.257939 -0.949299 0.957846 0.370000
6.949893 1.030078 3.810542 0.431089 0.876360 0.214839 1.000000 0.500000
6.877830 0.592071 5.720657 0.431089 0.876360 0.214839 1.000000 1.000000
7.163810 0.450071 5.747238 0.431089 0.876360 0.214839 0.875608 1.000000
7.552114 0.690854 3.963137 0.431089 0.876360 0.214839 0.875608 0.500000
7.363516 0.797089 3.915349 0.431089 0.876360 0.214839 0.914564 0.500000
7.238444 0.791158 4.196577 0.431089 0.876360 0.214839 0.932998 0.582010
7.113061 0.938167 3.851887 0.431089 0.876360 0.214839 0.966297 0.500000
6.336761 0.281702 3.929706 0.640188 -0.767253 0.038500 0.602601 0.335101
6.536616 0.511137 4.052608 0.640188 -0.767253 0.038500 0.684316 0.382279
6.653525 0.569296 4.393816 0.640188 -0.767253 0.038500 0.684316 0.382279
6.324237 0.351412 4.401017 0.640188 -0.767253 0.038500 0.602601 0.335101
6.967056 0.739429 3.840105 -0.307445 -0.190079 -0.932388 0.750000 0.420201
6.536616 0.511137 4.052608 -0.307445 -0.190079 -0.932388 0.684316 0.382279
6.410906 0.729962 4.025420 -0.307445 -0.190079 -0.932388 0.657380 0.436526
6.949893 1.030078 3.810542 -0.307445 -0.190079 -0.932388 0.750000 0.490000
6.076010 0.411174 3.905470 -0.656857 0.726486 0.201885 0.166667 0.500000
6.519881 0.355223 5.728486 -0.656857 0.726486 0.201885 0.166667 1.000000
6.718320 0.486527 5.724146 -0.656857 0.726486 0.201885 0.074270 1.000000
6.410906 0.729962 4.025420 -0.656857 0.726486 0.201885 0.074270 0.500000
7.068838 -0.815064 4.134140 0.420693 0.867297 -0.266106 0.750000 0.079799
6.672812 -0.687709 3.964085 0.420693 0.867297 -0.266106 0.677162 0.121852
6.687718 -0.517023 4.502998 0.420693 0.867297 -0.266106 0.677162 0.121852
7.001915 -0.673034 4.532201 0.420693 0.867297 -0.266106 0.750000 0.079799
6.383506 -0.396812 4.074734 -0.185217 0.111983 -0.976296 0.602601 0.164899
6.672812 -0.687709 3.964085 -0.185217 0.111983 -0.976296 0.677162 0.121852
6.561124 -0.914379 3.981672 -0.185217 0.111983 -0.976296 0.647292 0.069299
6.139919 -0.557989 4.080061 -0.185217 0.111983 -0.976296 0.542154 0.130000
7.086000 -1.105712 4.163702 -0.432753 -0.817889 0.379185 0.500000 0.500000
6.928271 -0.262140 5.807541 -0.432753 -0.817889 0.379185 0.500000 1.000000
6.738926 -0.168123 5.789943 -0.432753 -0.817889 0.379185 0.417641 1.000000
6.561124 -0.914379 3.981672 -0.432753 -0.817889 0.379185 0.417641 0.500000
7.238444 0.791158 4.196577 -0.834219 0.314589 -0.452894 0.932998 0.582010
7.363516 0.797089 3.915349 -0.834219 0.314589 -0.452894 0.914564 0.500000
7.284392 0.550564 3.944822 -0.834219 0.314589 -0.452894 0.835647 0.370753
7.142010 0.640088 4.214303 -0.834219 0.314589 -0.452894 0.799783 0.391459
7.113061 0.938167 3.851887 0.210570 -0.097030 -0.972751 0.792031 0.465734
7.025120 0.704872 3.859265 0.210570 -0.097030 -0.972751 0.765671 0.411153
6.967056 0.739429 3.840105 0.210570 -0.097030 -0.972751 0.750000 0.420201
6.949893 1.030078 3.810542 0.210570 -0.097030 -0.972751 0.750000 0.490000
7.142010 0.640088 4.214303 0.812731 -0.416471 -0.407455 0.799783 0.391459
7.025120 0.704872 3.859265 0.812731 -0.416471 -0.407455 0.765671 0.411153
7.113061 0.938167 3.851887 0.812731 -0.416471 -0.407455 0.792031 0.465734
7.238444 0.791158 4.196577 0.812731 -0.416471 -0.407455 0.932998 0.582010
7.231933 0.758380 5.334960 0.491778 0.826814 0.273007 0.938421 0.500000
7.089730 0.300224 6.937024 0.491778 0.826814 0.273007 0.938421 1.000000
7.202477 0.246930 6.936966 0.491778 0.826814 0.273007 0.833333 1.000000
7.699100 0.523527 5.163060 0.491778 0.826814 0.273007 0.833333 0.500000
7.699100 0.523527 5.163060 0.944926 0.147241 0.292293 0.833333 0.500000
7.202477 0.246930 6.936966 0.944926 0.147241 0.292293 0.833333 1.000000
7.219161 0.050281 6.953009 0.944926 0.147241 0.292293 0.666667 1.000000
7.798968 -0.392894 5.330935 0.944926 0.147241 0.292293 0.666667 0.500000
7.410843 -0.766934 5.418255 0.365271 -0.813218 0.453050 0.588554 0.500000
7.143174 -0.002269 6.960570 0.365271 -0.813218 0.453050 0.588554 1.000000
7.057029 -0.061844 6.969143 0.365271 -0.813218 0.453050 0.500000 1.000000
7.051267 -0.909981 5.405342 0.365271 -0.813218 0.453050 0.500000 0.500000
7.051267 -0.909981 5.405342 -0.383272 -0.811318 0.441436 0.500000 0.500000
7.057029 -0.061844 6.969143 -0.383272 -0.811318 0.441436 0.500000 1.000000
6.878214 0.022679 6.969235 -0.383272 -0.811318 0.441436 0.333333 1.000000
6.226626 -0.520185 5.405766 -0.383272 -0.811318 0.441436 0.333333 0.500000
7.202477 0.246930 6.936966 0.040528 0.084657 0.995586 0.457846 0.370000
7.089730 0.300224 6.937024 0.040528 0.084657 0.995586 0.326794 0.445663
7.023662 0.331453 6.937058 0.040528 0.084657 0.995586 0.250000 0.490000
6.861531 0.219328 6.953193 0.040528 0.084657 0.995586 0.042154 0.370000
6.878214 0.022679 6.969235 0.040528 0.084657 0.995586 0.042154 0.130000
7.057029 -0.061844 6.969143 0.040528 0.084657 0.995586 0.250000 0.010000
7.143174 -0.002269 6.960570 0.040528 0.084657 0.995586 0.360434 0.073759
7.219161 0.050281 6.953009 0.040528 0.084657 0.995586 0.457846 0.130000
6.226626 -0.520185 5.405766 -0.907003 -0.084555 0.412549 0.333333 0.500000
6.878214 0.022679 6.969235 -0.907003 -0.084555 0.412549 0.333333 1.000000
6.861531 0.219328 6.953193 -0.907003 -0.084555 0.412549 0.166667 1.000000
6.061307 0.316663 5.233490 -0.907003 -0.084555 0.412549 0.166667 0.500000
6.061307 0.316663 5.233490 -0.548344 0.779431 0.302996 0.166667 0.500000
6.861531 0.219328 6.953193 -0.548344 0.779431 0.302996 0.166667 1.000000
7.023662 0.331453 6.937058 -0.548344 0.779431 0.302996 -0.000000 1.000000
6.897388 0.903786 5.257375 -0.548344 0.779431 0.302996 -0.000000 0.500000
6.444079 -0.369801 5.384126 0.978645 0.132691 -0.156991 0.602601 0.164899
6.301136 0.203300 5.233367 0.978645 0.132691 -0.156991 0.602601 0.335101
6.404965 0.305606 5.711164 0.978645 0.132691 -0.156991 0.602601 0.335101
6.459528 -0.337531 5.763631 0.978645 0.132691 -0.156991 0.602601 0.164899
7.165698 0.536518 5.356522 0.214401 -0.105504 -0.971031 0.804460 0.388759
6.919765 0.640039 5.278892 0.214401 -0.105504 -0.971031 0.750000 0.420201
6.897388 0.903786 5.257375 0.214401 -0.105504 -0.971031 0.750000 0.490000
7.231933 0.758380 5.334960 0.214401 -0.105504 -0.971031 0.826794 0.445663
7.559140 -0.279530 5.331058 -0.030454 -0.199582 -0.979408 0.897399 0.164899
7.481647 0.373144 5.184700 -0.030454 -0.199582 -0.979408 0.897398 0.335101
7.699100 0.523527 5.163060 -0.030454 -0.199582 -0.979408 0.957846 0.370000
7.798968 -0.392894 5.330935 -0.030454 -0.199582 -0.979408 0.957846 0.130000
7.272929 -0.583090 5.408236 -0.091022 -0.148472 -0.984719 0.828316 0.125015
7.559140 -0.279530 5.331058 -0.091022 -0.148472 -0.984719 0.897399 0.164899
7.798968 -0.392894 5.330935 -0.091022 -0.148472 -0.984719 0.957846 0.130000
7.410843 -0.766934 5.418255 -0.091022 -0.148472 -0.984719 0.860434 0.073759
6.444079 -0.369801 5.384126 -0.040528 -0.084658 -0.995585 0.602601 0.164899
7.028891 -0.646234 5.383825 -0.040528 -0.084658 -0.995585 0.750000 0.079799
7.051267 -0.909981 5.405342 -0.040528 -0.084658 -0.995585 0.750000 0.010000
6.226626 -0.520185 5.405766 -0.040528 -0.084658 -0.995585 0.542154 0.130000
6.301136 0.203300 5.233367 -0.027770 -0.229003 -0.973030 0.602601 0.335101
6.444079 -0.369801 5.384126 -0.027770 -0.229003 -0.973030 0.602601 0.164899
6.226626 -0.520185 5.405766 -0.027770 -0.229003 -0.973030 0.542154 0.130000
6.061307 0.316663 5.233490 -0.027770 -0.229003 -0.973030 0.542154 0.370000
6.919765 0.640039 5.278892 0.058735 -0.015785 -0.998149 0.750000 0.420201
6.301136 0.203300 5.233367 0.058735 -0.015785 -0.998149 0.602601 0.335101
6.061307 0.316663 5.233490 0.058735 -0.015785 -0.998149 0.542154 0.370000
6.897388 0.903786 5.257375 0.058735 -0.015785 -0.998149 0.750000 0.490000
6.935214 0.672310 5.658397 -0.040529 -0.084658 -0.995586 0.750000 0.420201
7.151287 0.570175 5.658286 -0.040529 -0.084658 -0.995586 0.804460 0.388759
7.520025 0.395877 5.658096 -0.040529 -0.084658 -0.995586 0.897398 0.335101
7.574589 -0.247259 5.710563 -0.040529 -0.084658 -0.995586 0.897399 0.164899
7.326074 -0.419125 5.735294 -0.040529 -0.084658 -0.995586 0.828316 0.125015
7.044340 -0.613963 5.763330 -0.040529 -0.084658 -0.995586 0.750000 0.079799
6.459528 -0.337531 5.763631 -0.040529 -0.084658 -0.995586 0.602601 0.164899
6.404965 0.305606 5.711164 -0.040529 -0.084658 -0.995586 0.602601 0.335101
7.272929 -0.583090 5.408236 -0.432541 0.878684 -0.202048 0.828316 0.125015
7.028891 -0.646234 5.383825 -0.432541 0.878684 -0.202048 0.750000 0.079799
7.044340 -0.613963 5.763330 -0.432541 0.878684 -0.202048 0.750000 0.079799
7.326074 -0.419125 5.735294 -0.432541 0.878684 -0.202048 0.828316 0.125015
7.165698 0.536518 5.356522 -0.424956 -0.901783 0.078740 0.804460 0.388759
7.481647 0.373144 5.184700 -0.424956 -0.901783 0.078740 0.897398 0.335101
7.520025 0.395877 5.658096 -0.424956 -0.901783 0.078740 0.897398 0.335101
7.151287 0.570175 5.658286 -0.424956 -0.901783 0.078740 0.804460 0.388759
6.301136 0.203300 5.233367 0.572617 -0.818370 0.048796 0.602601 0.335101
6.919765 0.640039 5.278892 0.572617 -0.818370 0.048796 0.750000 0.420201
6.935214 0.672310 5.658397 0.572617 -0.818370 0.048796 0.750000 0.420201
6.404965 0.305606 5.711164 0.572617 -0.818370 0.048796 0.602601 0.335101
7.028891 -0.646234 5.383825 0.425424 0.900114 -0.093858 0.750000 0.079799
6.444079 -0.369801 5.384126 0.425424 0.900114 -0.093858 0.602601 0.164899
6.459528 -0.337531 5.763631 0.425424 0.900114 -0.093858 0.602601 0.164899
7.044340 -0.613963 5.763330 0.425424 0.900114 -0.093858 0.750000 0.079799
7.481647 0.373144 5.184700 -0.993513 -0.090730 0.068552 0.897398 0.335101
7.559140 -0.279530 5.331058 -0.993513 -0.090730 0.068552 0.897399 0.164899
7.574589 -0.247259 5.710563 -0.993513 -0.090730 0.068552 0.897399 0.164899
7.520025 0.395877 5.658096 -0.993513 -0.090730 0.068552 0.897398 0.335101
7.559140 -0.279530 5.331058 -0.672637 0.727240 -0.136678 0.897399 0.164899
7.272929 -0.583090 5.408236 -0.672637 0.727240 -0.136678 0.828316 0.125015
7.326074 -0.419125 5.735294 -0.672637 0.727240 -0.136678 0.828316 0.125015
7.574589 -0.247259 5.710563 -0.672637 0.727240 -0.136678 0.897399 0.164899
7.028891 -0.646234 5.383825 0.076245 -0.042880 -0.996167 0.750000 0.079799
7.272929 -0.583090 5.408236 0.076245 -0.042880 -0.996167 0.828316 0.125015
7.410843 -0.766934 5.418255 0.076245 -0.042880 -0.996167 0.860434 0.073759
7.051267 -0.909981 5.405342 0.076245 -0.042880 -0.996167 0.750000 0.010000
7.798968 -0.392894 5.330935 0.660102 -0.625719 0.415622 0.666667 0.500000
7.219161 0.050281 6.953009 0.660102 -0.625719 0.415622 0.666667 1.000000
7.143174 -0.002269 6.960570 0.660102 -0.625719 0.415622 0.588554 1.000000
7.410843 -0.766934 5.418255 0.660102 -0.625719 0.415622 0.588554 0.500000
6.919765 0.640039 5.278892 -0.417392 -0.904440 0.088160 0.750000 0.420201
7.165698 0.536518 5.356522 -0.417392 -0.904440 0.088160 0.804460 0.388759
7.151287 0.570175 5.658286 -0.417392 -0.904440 0.088160 0.804460 0.388759
6.935214 0.672310 5.658397 -0.417392 -0.904440 0.088160 0.750000 0.420201
7.481647 0.373144 5.184700 -0.334121 0.146577 -0.931063 0.897398 0.335101
7.165698 0.536518 5.356522 -0.334121 0.146577 -0.931063 0.804460 0.388759
7.231933 0.758380 5.334960 -0.334121 0.146577 -0.931063 0.826794 0.445663
7.699100 0.523527 5.163060 -0.334121 0.146577 -0.931063 0.957846 0.370000
6.897388 0.903786 5.257375 0.340499 0.896586 0.283186 1.000000 0.500000
7.023662 0.331453 6.937058 0.340499 0.896586 0.283186 1.000000 1.000000
7.089730 0.300224 6.937024 0.340499 0.896586 0.283186 0.938421 1.000000
7.231933 0.758380 5.334960 0.340499 0.896586 0.283186 0.938421 0.500000
4 0 1 2 3
4 4 5 6 7
4 8 9 10 11
4 12 13 14 15
6 16 17 18 19 20 21
4 22 23 24 25
4 26 27 28 29
6 30 31 32 33 34 35
4 36 37 38 39
4 40 41 42 43
4 44 45 46 47
4 48 49 50 51
4 52 53 54 55
4 56 57 58 59
4 60 61 62 63
7 64 65 66 67 68 69 70
4 71 72 73 74
4 75 76 77 78
8 79 80 81 82 83 84 85 86
4 87 88 89 90
4 91 92 93 94
4 95 96 97 98
4 99 100 101 102
4 103 104 105 106
4 107 108 109 110
4 111 112 113 114
4 115 116 117 118
4 119 120 121 122
8 123 124 125 126 127 128 129 130
4 131 132 133 134
4 135 136 137 138
4 139 140 141 142
4 143 144 145 146
7 147 148 149 150 151 152 153
4 154 155 156 157
4 158 159 160 161
4 162 163 164 165
4 166 167 168 169
4 170 171 172 173
4 174 175 176 177
4 178 179 180 181
4 182 183 184 185
4 186 187 188 189
4 190 191 192 193
4 194 195 196 197
7 198 199 200 201 202 203 204
4 205 206 207 208
8 209 210 211 212 213 214 215 216
4 217 218 219 220
4 221 222 223 224
4 225 226 227 228
4 229 230 231 232
4 233 234 235 236
4 237 238 239 240
4 241 242 243 244
4 245 246 247 248
4 249 250 251 252
8 253 254 255 256 257 258 259 260
7 261 262 263 264 265 266 267
4 268 269 270 271
4 272 273 274 275
4 276 277 278 279
4 280 281 282 283
4 284 285 286 287
4 288 289 290 291
4 292 293 294 295
4 296 297 298 299
4 300 301 302 303
4 304 305 306 307
4 308 309 310 311
4 312 313 314 315
4 316 317 318 319
4 320 321 322 323
4 324 325 326 327
4 328 329 330 331
4 332 333 334 335
9 336 337 338 339 340 341 342 343 344
4 345 346 347 348
4 349 350 351 352
4 353 354 355 356
4 357 358 359 360
4 361 362 363 364
4 365 366 367 368
4 369 370 371 372
4 373 374 375 376
4 377 378 379 380
9 381 382 383 384 385 386 387 388 389
4 390 391 392 393
4 394 395 396 397
4 398 399 400 401
4 402 403 404 405
4 406 407 408 409
7 410 411 412 413 414 415 416
4 417 418 419 420
7 421 422 423 424 425 426 427
4 428 429 430 431
4 432 433 434 435
4 436 437 438 439
4 440 441 442 443
4 444 445 446 447
4 448 449 450 451
4 452 453 454 455
4 456 457 458 459
4 460 461 462 463
4 464 465 466 467
4 468 469 470 471
4 472 473 474 475
4 476 477 478 479
8 480 481 482 483 484 485 486 487
4 488 489 490 491
4 492 493 494 495
4 496 497 498 499
4 500 501 502 503
4 504 505 506 507
4 508 509 510 511
4 512 513 514 515
4 516 517 518 519
4 520 521 522 523
8 524 525 526 527 528 529 530 531
4 532 533 534 535
4 536 537 538 539
4 540 541 542 543
4 544 545 546 547
4 548 549 550 551
4 552 553 554 555
4 556 557 558 559
4 560 561 562 563
4 564 565 566 567
4 568 569 570 571
4 572 573 574 575
