# Blender v2.82 (sub 7) OBJ File: 'VEHICLES01.blend'
# www.blender.org
mtllib tree_02.mtl
o tree_02_Cylinder
v -12.678160 0.012149 22.976530
v -12.552733 7.855277 23.278629
v -12.573491 0.012149 22.971827
v -12.491714 7.784800 23.342968
v -12.480494 0.012149 23.020088
v -12.473853 7.733210 23.442213
v -12.424088 0.012149 23.108383
v -12.503937 7.714331 23.549768
v -12.419385 0.012149 23.213053
v -12.573904 7.733222 23.636818
v -12.467647 0.012149 23.306049
v -12.665007 7.784820 23.680037
v -12.555941 0.012149 23.362455
v -12.752835 7.855300 23.667843
v -12.660609 0.012149 23.367159
v -12.813854 7.925777 23.603502
v -12.753606 0.012149 23.318897
v -12.831716 7.977366 23.504259
v -12.810013 0.012149 23.230602
v -12.801632 7.996245 23.396702
v -12.814715 0.012149 23.125935
v -12.731665 7.977355 23.309652
v -12.766454 0.012149 23.032936
v -12.640562 7.925757 23.266434
v -12.192311 1.064381 22.864555
v -12.902540 2.330124 22.623137
v -12.536013 3.449634 22.888271
v -12.165486 4.581796 22.865425
v -12.408703 5.658620 23.315620
v -12.916082 6.798332 23.209999
v -12.843389 6.795752 23.217360
v -12.367702 5.658620 23.341845
v -12.092269 4.575951 22.901047
v -12.415176 3.445359 22.877056
v -12.761539 2.324447 22.646366
v -11.974605 1.079446 22.971142
v -12.784254 6.788700 23.259771
v -12.345305 5.658620 23.385056
v -12.046768 4.559983 22.966915
v -12.305246 3.433678 22.927299
v -12.651295 2.311489 22.736542
v -11.839575 1.120604 23.168770
v -12.754523 6.779068 23.325867
v -12.347516 5.658620 23.433676
v -12.041177 4.538171 23.045382
v -12.235679 3.417723 23.025541
v -12.601347 2.294723 22.869497
v -11.823401 1.176826 23.404484
v -12.762163 6.769437 23.397936
v -12.373740 5.658620 23.474676
v -12.076993 4.516359 23.115419
v -12.225113 3.401767 23.145454
v -12.625080 2.278640 23.009609
v -11.930421 1.233048 23.615128
v -12.805126 6.762385 23.456671
v -12.416952 5.658620 23.497072
v -12.144620 4.500391 23.158262
v -12.276381 3.390087 23.254910
v -12.716133 2.267550 23.119333
v -12.131954 1.274206 23.744255
v -12.871902 6.759805 23.486330
v -12.465572 5.658620 23.494862
v -12.225936 4.494546 23.162434
v -12.375746 3.385812 23.324579
v -12.850109 2.264425 23.169271
v -12.374003 1.289271 23.757269
v -12.944595 6.762385 23.478970
v -12.506573 5.658620 23.468637
v -12.299154 4.500391 23.126810
v -12.496582 3.390087 23.335796
v -12.991110 2.270102 23.146040
v -12.591710 1.274206 23.650681
v -13.003731 6.769437 23.436560
v -12.528969 5.658620 23.425426
v -12.344654 4.516359 23.060942
v -12.606512 3.401767 23.285551
v -13.101355 2.283060 23.055864
v -12.726741 1.233048 23.453054
v -13.033462 6.779068 23.370464
v -12.526758 5.658620 23.376806
v -12.350245 4.538171 22.982477
v -12.676081 3.417723 23.187311
v -13.151302 2.299826 22.922909
v -12.742913 1.176826 23.217339
v -13.025822 6.788700 23.298393
v -12.500534 5.658620 23.335806
v -12.314430 4.559983 22.912437
v -12.686646 3.433678 23.067398
v -13.127570 2.315909 22.782797
v -12.635895 1.120604 23.006697
v -12.982858 6.795752 23.239660
v -12.457322 5.658620 23.313410
v -12.246803 4.575951 22.869595
v -12.635378 3.445359 22.957941
v -13.036517 2.326999 22.673073
v -12.434361 1.079446 22.877569
v -14.923805 2.403425 23.398605
v -12.951364 2.403425 23.065094
v -14.965836 2.403425 23.113869
v -12.981155 2.403425 22.863266
v -14.231480 2.548506 23.413097
v -13.591282 2.501299 23.295242
v -13.660278 2.501299 22.827822
v -14.339121 2.548506 22.683867
v -12.881432 3.777275 25.147530
v -12.358413 3.777275 23.216673
v -13.157604 3.777275 25.066475
v -12.554170 3.777275 23.159220
v -12.251036 3.922357 24.571110
v -12.417352 3.875149 23.894159
v -12.870715 3.875149 23.761103
v -12.958334 3.922357 24.363523
v -11.025871 5.050124 24.803907
v -12.189444 5.050124 23.176683
v -11.263451 5.050124 24.966381
v -12.357844 5.050124 23.291849
v -11.216760 5.195206 24.126799
v -11.702312 5.147999 23.651201
v -12.092319 5.147999 23.917915
v -11.825217 5.195206 24.542904
v -10.432397 3.101198 22.024900
v -12.444466 3.174947 22.867374
v -10.316677 3.101198 22.288435
v -12.362441 3.174947 23.054173
v -11.330814 3.320029 21.869841
v -11.888024 3.272821 22.476431
v -11.698061 3.272821 22.909046
v -11.034449 3.320029 22.544771
v -13.587686 6.845200 21.315832
v -12.986400 6.845200 23.347919
v -13.311422 6.845200 21.235088
v -12.790578 6.845200 23.290688
v -13.616298 6.990281 22.142906
v -13.302266 6.943074 22.745682
v -12.848754 6.943074 22.613134
v -12.908766 6.990281 21.936115
v -14.330002 6.280817 25.005194
v -12.670759 6.280817 23.491104
v -14.520817 6.280817 24.789715
v -12.759659 6.280817 23.390713
v -13.850720 6.425899 24.600788
v -13.439345 6.378692 24.059748
v -13.752586 6.378692 23.706022
v -14.339413 6.425899 24.048935
v -12.093046 4.564668 20.977539
v -12.369626 4.564668 22.974087
v -11.806224 4.564668 21.001495
v -12.166320 4.564668 22.991068
v -12.524282 4.709749 21.623194
v -12.368784 4.662542 22.298561
v -11.897938 4.662542 22.337887
v -11.789708 4.709749 21.684547
vt 0.460628 0.827363
vt 0.460628 0.827363
vt 0.460628 0.827363
vt 0.460628 0.827363
vt 0.460628 0.827363
vt 0.460628 0.827363
vt 0.460628 0.827363
vt 0.460628 0.827363
vt 0.460628 0.827363
vt 0.460628 0.827363
vt 0.460628 0.827363
vt 0.460628 0.827363
vt 0.460628 0.827363
vt 0.460628 0.827363
vt 0.460628 0.827363
vt 0.460628 0.827363
vt 0.460628 0.827363
vt 0.460628 0.827363
vt 0.460628 0.827363
vt 0.460628 0.827363
vt 0.460628 0.827363
vt 0.460628 0.827363
vt 0.460628 0.827363
vt 0.460628 0.827363
vt 0.460628 0.827363
vt 0.460628 0.827363
vt 0.460628 0.827363
vt 0.460628 0.827363
vt 0.460628 0.827363
vt 0.460628 0.827363
vt 0.460628 0.827363
vt 0.460628 0.827363
vt 0.460628 0.827363
vt 0.460628 0.827363
vt 0.460628 0.827363
vt 0.460628 0.827363
vt 0.460628 0.827363
vt 0.460628 0.827363
vt 0.460628 0.827363
vt 0.460628 0.827363
vt 0.460628 0.827363
vt 0.460628 0.827363
vt 0.460628 0.827363
vt 0.460628 0.827363
vt 0.460628 0.827363
vt 0.460628 0.827363
vt 0.460628 0.827363
vt 0.460628 0.827363
vt 0.460628 0.827363
vt 0.460628 0.827363
vt 0.460628 0.827363
vt 0.460628 0.827363
vt 0.460628 0.827363
vt 0.460628 0.827363
vt 0.460628 0.827363
vt 0.460628 0.827363
vt 0.460628 0.827363
vt 0.460628 0.827363
vt 0.460628 0.827363
vt 0.460628 0.827363
vt 0.460628 0.827363
vt 0.460628 0.827363
vt 0.460628 0.827363
vt 0.460628 0.827363
vt 0.460628 0.827363
vt 0.460628 0.827363
vt 0.460628 0.827363
vt 0.460628 0.827363
vt 0.460628 0.827363
vt 0.460628 0.827363
vt 0.460628 0.827363
vt 0.460628 0.827363
vt 0.460628 0.827363
vt 0.460628 0.827363
vt 0.460628 0.827363
vt 0.460628 0.827363
vt 0.460628 0.827363
vt 0.460628 0.827363
vt 0.460628 0.827363
vt 0.460628 0.827363
vt 0.460628 0.827363
vt 0.460628 0.827363
vt 0.460628 0.827363
vt 0.460628 0.827363
vt 0.460628 0.827363
vt 0.460628 0.827363
vt 0.460628 0.827363
vt 0.460628 0.827363
vt 0.460628 0.827363
vt 0.460628 0.827363
vt 0.460628 0.827363
vt 0.460628 0.827363
vt 0.460628 0.827363
vt 0.460628 0.827363
vt 0.421255 0.610814
vt 0.421255 0.610814
vt 0.421255 0.610814
vt 0.421255 0.610814
vt 0.421255 0.610814
vt 0.421255 0.610814
vt 0.421255 0.610814
vt 0.421255 0.610814
vt 0.421255 0.610814
vt 0.421255 0.610814
vt 0.421255 0.610814
vt 0.421255 0.610814
vt 0.421255 0.610814
vt 0.421255 0.610814
vt 0.421255 0.610814
vt 0.421255 0.610814
vt 0.421255 0.610814
vt 0.421255 0.610814
vt 0.421255 0.610814
vt 0.421255 0.610814
vt 0.421255 0.610814
vt 0.421255 0.610814
vt 0.421255 0.610814
vt 0.421255 0.610814
vt 0.421255 0.610814
vt 0.421255 0.610814
vt 0.421255 0.610814
vt 0.421255 0.610814
vt 0.421255 0.610814
vt 0.421255 0.610814
vt 0.421255 0.610814
vt 0.421255 0.610814
vt 0.421255 0.610814
vt 0.421255 0.610814
vt 0.421255 0.610814
vt 0.421255 0.610814
vt 0.421255 0.610814
vt 0.421255 0.610814
vt 0.421255 0.610814
vt 0.421255 0.610814
vt 0.421255 0.610814
vt 0.421255 0.610814
vt 0.421255 0.610814
vt 0.421255 0.610814
vt 0.421255 0.610814
vt 0.421255 0.610814
vt 0.421255 0.610814
vt 0.421255 0.610814
vt 0.421255 0.610814
vt 0.460628 0.827363
vt 0.460628 0.827363
vt 0.421255 0.610814
vt 0.421255 0.610814
vt 0.421255 0.610814
vt 0.421255 0.610814
vt 0.421255 0.610814
vt 0.421255 0.610814
vt 0.421255 0.610814
vn 0.1034 0.0890 -0.9906
vn 0.5720 -0.1000 -0.8141
vn 0.8806 -0.2070 -0.4262
vn 0.9599 -0.2728 0.0653
vn 0.7890 -0.2886 0.5425
vn 0.4046 -0.1921 0.8941
vn -0.1036 -0.0943 0.9901
vn -0.5795 0.0369 0.8141
vn -0.8912 0.1606 0.4243
vn -0.9790 0.1882 -0.0786
vn 0.5729 0.7649 0.2945
vn -0.8017 0.2037 -0.5620
vn -0.4064 0.1445 -0.9022
vn 0.0000 -1.0000 0.0000
vn -0.5317 0.1569 -0.8323
vn -0.0661 -0.2226 -0.9727
vn -0.3350 0.3436 -0.8773
vn -0.5728 0.1337 -0.8087
vn -0.0741 0.3704 -0.9259
vn 0.0453 -0.0722 -0.9964
vn -0.8837 0.0932 -0.4586
vn -0.5521 -0.3875 -0.7382
vn -0.7241 0.4024 -0.5602
vn -0.8887 0.2400 -0.3906
vn -0.5585 0.2193 -0.8000
vn -0.4443 -0.2609 -0.8571
vn -0.9973 0.0580 0.0448
vn -0.8565 -0.3977 -0.3290
vn -0.9147 0.3889 -0.1103
vn -0.9467 0.2978 0.1230
vn -0.8929 0.0221 -0.4497
vn -0.7796 -0.3789 -0.4986
vn -0.8415 0.0546 0.5376
vn -0.9483 -0.2878 0.1337
vn -0.8838 0.2886 0.3684
vn -0.7564 0.2953 0.5836
vn -0.9861 -0.1640 0.0247
vn -0.9189 -0.3923 -0.0418
vn -0.4589 -0.0871 0.8842
vn -0.8161 -0.0744 0.5731
vn -0.6208 0.1154 0.7755
vn -0.3769 0.2673 0.8868
vn -0.8189 -0.2902 0.4953
vn -0.8362 -0.3359 0.4334
vn 0.0437 -0.2213 0.9742
vn -0.4362 0.2988 0.8488
vn -0.1655 -0.0933 0.9818
vn 0.0970 0.1674 0.9811
vn -0.4342 -0.3289 0.8386
vn -0.5291 -0.1888 0.8273
vn 0.5102 -0.3195 0.7985
vn 0.0793 0.5638 0.8221
vn 0.3419 -0.2693 0.9003
vn 0.5724 0.0424 0.8189
vn 0.0684 -0.2652 0.9618
vn -0.0454 0.0206 0.9988
vn 0.7916 -0.4523 0.4108
vn 0.4969 0.6579 0.5659
vn 0.7361 -0.3578 0.5746
vn 0.9062 -0.0713 0.4169
vn 0.5510 -0.1167 0.8263
vn 0.4492 0.2169 0.8667
vn 0.8922 -0.4499 -0.0401
vn 0.7514 0.6238 0.2152
vn 0.9386 -0.3226 0.1220
vn 0.9855 -0.1338 -0.1046
vn 0.8779 0.0762 0.4727
vn 0.7932 0.3369 0.5073
vn 0.7783 -0.3833 -0.4972
vn 0.8456 0.5032 -0.1781
vn 0.9046 -0.2165 -0.3671
vn 0.7929 -0.1613 -0.5877
vn 0.9654 0.2609 0.0037
vn 0.9377 0.3447 0.0426
vn 0.4459 -0.2508 -0.8592
vn 0.7557 0.3047 -0.5798
vn 0.6303 -0.0351 -0.7756
vn 0.4053 -0.0965 -0.9091
vn 0.7992 0.3896 -0.4576
vn 0.8518 0.2819 -0.4415
vn -0.0448 -0.0853 -0.9954
vn 0.4370 0.0418 -0.8985
vn 0.1669 0.1751 -0.9703
vn -0.0921 0.0100 -0.9957
vn 0.4222 0.4319 -0.7970
vn 0.5341 0.1320 -0.8351
vn 0.1437 0.9894 -0.0212
vn -0.2056 0.9782 0.0304
vn 0.0716 0.9974 -0.0106
vn 0.0409 0.9894 -0.1394
vn -0.0548 0.9808 0.1869
vn 0.0220 0.9969 -0.0749
vn -0.0820 0.9894 -0.1199
vn 0.1200 0.9771 0.1755
vn -0.0399 0.9975 -0.0583
vn -0.1330 0.9894 0.0584
vn 0.2533 0.9610 -0.1112
vn -0.0572 0.9980 0.0251
vn 0.0407 0.9894 0.1394
vn -0.0509 0.9834 -0.1743
vn 0.0198 0.9975 0.0678
vn 0.0765 0.9948 -0.0678
vn -0.1688 0.9743 0.1495
vn 0.0529 0.9975 -0.0468
vn -0.0120 0.9896 0.1434
vn 0.0174 0.9779 -0.2081
vn -0.0059 0.9975 0.0711
vn 0.6202 -0.1634 -0.7672
vn 0.9233 -0.2466 -0.2944
vn 0.9312 -0.2993 0.2079
vn 0.7118 -0.2968 0.6366
vn 0.3002 -0.2427 0.9225
vn -0.2684 -0.1704 0.9481
vn -0.7417 -0.0304 0.6701
vn -0.9718 0.0857 0.2195
vn -0.9587 0.1501 -0.2418
vn -0.7446 0.1903 -0.6398
vn -0.3629 0.1318 -0.9224
vn 0.1480 0.0133 -0.9889
vn -0.0610 -0.1252 -0.9903
vn -0.3265 -0.3043 -0.8949
vn -0.5463 0.3582 -0.7571
vn -0.0509 -0.0035 -0.9987
vn 0.0419 0.3859 -0.9216
vn -0.3868 -0.2366 -0.8913
vn -0.5328 0.0427 -0.8452
vn -0.6864 -0.3965 -0.6096
vn -0.8385 0.4194 -0.3480
vn -0.5519 0.1253 -0.8245
vn -0.4449 0.2554 -0.8584
vn -0.7321 -0.3594 -0.5787
vn -0.8778 0.0910 -0.4703
vn -0.8930 -0.4044 -0.1977
vn -0.9232 0.3618 0.1295
vn -0.8923 0.2425 -0.3808
vn -0.8411 0.0568 -0.5379
vn -0.9005 -0.4081 -0.1500
vn -0.9978 0.0148 0.0649
vn -0.9161 -0.2512 0.3125
vn -0.7779 0.2236 0.5872
vn -0.9415 0.3014 0.1509
vn -0.9884 -0.1451 -0.0449
vn -0.8606 -0.3873 0.3307
vn -0.8144 -0.0845 0.5741
vn -0.6162 0.1452 0.7741
vn -0.4130 0.0282 0.9103
vn -0.7680 0.2477 0.5906
vn -0.8516 -0.2828 0.4414
vn -0.5833 -0.2570 0.7706
vn -0.4176 -0.2135 0.8832
vn -0.1327 0.4051 0.9046
vn 0.0850 -0.1719 0.9814
vn -0.4178 0.1865 0.8892
vn -0.5094 -0.3262 0.7963
vn -0.1024 -0.0499 0.9935
vn 0.0298 -0.3349 0.9418
vn 0.2698 0.5904 0.7607
vn 0.5546 -0.3105 0.7720
vn 0.0453 0.0813 0.9957
vn -0.0436 -0.2826 0.9582
vn 0.3962 0.1532 0.9053
vn 0.4365 -0.3965 0.8076
vn 0.5499 0.6519 0.5222
vn 0.8617 -0.3512 0.3662
vn 0.5428 -0.0495 0.8384
vn 0.4550 -0.1498 0.8778
vn 0.7563 0.2875 0.5877
vn 0.7368 -0.4587 0.4968
vn 0.7569 0.6223 0.1996
vn 0.9393 -0.3194 -0.1253
vn 0.8981 -0.1631 0.4085
vn 0.8414 0.0493 0.5382
vn 0.9310 0.3355 0.1435
vn 0.8822 -0.4680 0.0511
vn 0.8396 0.4797 -0.2549
vn 0.7898 -0.1755 -0.5878
vn 0.9789 -0.1679 -0.1164
vn 0.9674 0.2492 0.0440
vn 0.8845 0.3044 -0.3535
vn 0.7941 -0.3975 -0.4598
vn 0.6339 0.2062 -0.7454
vn 0.4178 0.0255 -0.9082
vn 0.7933 -0.1614 -0.5871
vn 0.8196 0.3844 -0.4248
vn 0.5878 0.1591 -0.7932
vn 0.4398 -0.2473 -0.8634
vn 0.1579 -0.0988 -0.9825
vn -0.0821 0.2252 -0.9708
vn 0.4285 -0.1033 -0.8976
vn 0.4869 0.4283 -0.7613
vn 0.0990 -0.0481 -0.9939
vn -0.0549 0.9808 0.1869
usemtl Material.001
s off
f 30/1/1 4/2/1 31/3/1
f 4/2/2 37/4/2 31/3/2
f 6/5/3 43/6/3 37/4/3
f 8/7/4 49/8/4 43/6/4
f 10/9/5 55/10/5 49/8/5
f 55/10/6 14/11/6 61/12/6
f 61/12/7 16/13/7 67/14/7
f 67/14/8 18/15/8 73/16/8
f 73/16/9 20/17/9 79/18/9
f 20/17/10 85/19/10 79/18/10
f 10/9/11 8/7/11 18/15/11
f 22/20/12 91/21/12 85/19/12
f 24/22/13 30/1/13 91/21/13
f 7/23/14 15/24/14 23/25/14
f 23/25/15 25/26/15 1/27/15
f 96/28/16 26/29/16 25/26/16
f 94/30/17 26/29/17 95/31/17
f 93/32/18 27/33/18 94/30/18
f 93/32/19 29/34/19 28/35/19
f 92/36/20 30/1/20 29/34/20
f 90/37/21 23/25/21 21/38/21
f 90/37/22 95/31/22 96/28/22
f 89/39/23 94/30/23 95/31/23
f 87/40/24 94/30/24 88/41/24
f 87/40/25 92/36/25 93/32/25
f 86/42/26 91/21/26 92/36/26
f 84/43/27 21/38/27 19/44/27
f 83/45/28 90/37/28 84/43/28
f 83/45/29 88/41/29 89/39/29
f 81/46/30 88/41/30 82/47/30
f 81/46/31 86/42/31 87/40/31
f 80/48/32 85/19/32 86/42/32
f 17/49/33 84/43/33 19/44/33
f 77/50/34 84/43/34 78/51/34
f 77/50/35 82/47/35 83/45/35
f 75/52/36 82/47/36 76/53/36
f 75/52/37 80/48/37 81/46/37
f 73/16/38 80/48/38 74/54/38
f 15/24/39 78/51/39 17/49/39
f 72/55/40 77/50/40 78/51/40
f 71/56/41 76/53/41 77/50/41
f 70/57/42 75/52/42 76/53/42
f 69/58/43 74/54/43 75/52/43
f 67/14/44 74/54/44 68/59/44
f 13/60/45 72/55/45 15/24/45
f 65/61/46 72/55/46 66/62/46
f 65/61/47 70/57/47 71/56/47
f 64/63/48 69/58/48 70/57/48
f 62/64/49 69/58/49 63/65/49
f 61/12/50 68/59/50 62/64/50
f 11/66/51 66/62/51 13/60/51
f 59/67/52 66/62/52 60/68/52
f 59/67/53 64/63/53 65/61/53
f 58/69/54 63/65/54 64/63/54
f 56/70/55 63/65/55 57/71/55
f 55/10/56 62/64/56 56/70/56
f 54/72/57 11/66/57 9/73/57
f 53/74/58 60/68/58 54/72/58
f 53/74/59 58/69/59 59/67/59
f 52/75/60 57/71/60 58/69/60
f 50/76/61 57/71/61 51/77/61
f 49/8/62 56/70/62 50/76/62
f 48/78/63 9/73/63 7/23/63
f 48/78/64 53/74/64 54/72/64
f 46/79/65 53/74/65 47/80/65
f 46/79/66 51/77/66 52/75/66
f 44/81/67 51/77/67 45/82/67
f 43/6/68 50/76/68 44/81/68
f 42/83/69 7/23/69 5/84/69
f 42/83/70 47/80/70 48/78/70
f 40/85/71 47/80/71 41/86/71
f 39/87/72 46/79/72 40/85/72
f 38/88/73 45/82/73 39/87/73
f 38/88/74 43/6/74 44/81/74
f 36/89/75 5/84/75 3/90/75
f 36/89/76 41/86/76 42/83/76
f 34/91/77 41/86/77 35/92/77
f 33/93/78 40/85/78 34/91/78
f 32/94/79 39/87/79 33/93/79
f 32/94/80 37/4/80 38/88/80
f 25/26/81 3/90/81 1/27/81
f 25/26/82 35/92/82 36/89/82
f 27/33/83 35/92/83 26/29/83
f 28/35/84 34/91/84 27/33/84
f 28/35/85 32/94/85 33/93/85
f 29/34/86 31/3/86 32/94/86
f 102/95/87 100/96/87 103/97/87
f 101/98/88 99/99/88 97/100/88
f 101/98/89 103/97/89 104/101/89
f 106/102/90 111/103/90 110/104/90
f 105/105/91 112/106/91 107/107/91
f 110/104/92 112/106/92 109/108/92
f 114/109/93 119/110/93 118/111/93
f 117/112/94 115/113/94 113/114/94
f 118/111/95 120/115/95 117/112/95
f 126/116/96 124/117/96 127/118/96
f 121/119/97 128/120/97 123/121/97
f 126/116/98 128/120/98 125/122/98
f 130/123/99 135/124/99 134/125/99
f 129/126/100 136/127/100 131/128/100
f 134/125/101 136/127/101 133/129/101
f 142/130/102 140/131/102 143/132/102
f 141/133/103 139/134/103 137/135/103
f 142/130/104 144/136/104 141/133/104
f 150/137/105 148/138/105 151/139/105
f 145/140/106 152/141/106 147/142/106
f 150/137/107 152/141/107 149/143/107
f 30/1/108 2/144/108 4/2/108
f 4/2/109 6/5/109 37/4/109
f 6/5/110 8/7/110 43/6/110
f 8/7/111 10/9/111 49/8/111
f 10/9/112 12/145/112 55/10/112
f 55/10/113 12/145/113 14/11/113
f 61/12/114 14/11/114 16/13/114
f 67/14/115 16/13/115 18/15/115
f 73/16/116 18/15/116 20/17/116
f 20/17/117 22/20/117 85/19/117
f 6/5/11 4/2/11 22/20/11
f 4/2/11 2/144/11 24/22/11
f 22/20/11 4/2/11 24/22/11
f 22/20/11 20/17/11 6/5/11
f 20/17/11 18/15/11 8/7/11
f 6/5/11 20/17/11 8/7/11
f 18/15/11 16/13/11 10/9/11
f 16/13/11 14/11/11 12/145/11
f 10/9/11 16/13/11 12/145/11
f 22/20/118 24/22/118 91/21/118
f 24/22/119 2/144/119 30/1/119
f 23/25/14 1/27/14 3/90/14
f 3/90/14 5/84/14 7/23/14
f 7/23/14 9/73/14 11/66/14
f 11/66/14 13/60/14 7/23/14
f 13/60/14 15/24/14 7/23/14
f 15/24/14 17/49/14 19/44/14
f 19/44/14 21/38/14 15/24/14
f 21/38/14 23/25/14 15/24/14
f 23/25/14 3/90/14 7/23/14
f 23/25/120 96/28/120 25/26/120
f 96/28/121 95/31/121 26/29/121
f 94/30/122 27/33/122 26/29/122
f 93/32/123 28/35/123 27/33/123
f 93/32/124 92/36/124 29/34/124
f 92/36/125 91/21/125 30/1/125
f 90/37/126 96/28/126 23/25/126
f 90/37/127 89/39/127 95/31/127
f 89/39/128 88/41/128 94/30/128
f 87/40/129 93/32/129 94/30/129
f 87/40/130 86/42/130 92/36/130
f 86/42/131 85/19/131 91/21/131
f 84/43/132 90/37/132 21/38/132
f 83/45/133 89/39/133 90/37/133
f 83/45/134 82/47/134 88/41/134
f 81/46/135 87/40/135 88/41/135
f 81/46/136 80/48/136 86/42/136
f 80/48/137 79/18/137 85/19/137
f 17/49/138 78/51/138 84/43/138
f 77/50/139 83/45/139 84/43/139
f 77/50/140 76/53/140 82/47/140
f 75/52/141 81/46/141 82/47/141
f 75/52/142 74/54/142 80/48/142
f 73/16/143 79/18/143 80/48/143
f 15/24/144 72/55/144 78/51/144
f 72/55/145 71/56/145 77/50/145
f 71/56/146 70/57/146 76/53/146
f 70/57/147 69/58/147 75/52/147
f 69/58/148 68/59/148 74/54/148
f 67/14/149 73/16/149 74/54/149
f 13/60/150 66/62/150 72/55/150
f 65/61/151 71/56/151 72/55/151
f 65/61/152 64/63/152 70/57/152
f 64/63/153 63/65/153 69/58/153
f 62/64/154 68/59/154 69/58/154
f 61/12/155 67/14/155 68/59/155
f 11/66/156 60/68/156 66/62/156
f 59/67/157 65/61/157 66/62/157
f 59/67/158 58/69/158 64/63/158
f 58/69/159 57/71/159 63/65/159
f 56/70/160 62/64/160 63/65/160
f 55/10/161 61/12/161 62/64/161
f 54/72/162 60/68/162 11/66/162
f 53/74/163 59/67/163 60/68/163
f 53/74/164 52/75/164 58/69/164
f 52/75/165 51/77/165 57/71/165
f 50/76/166 56/70/166 57/71/166
f 49/8/167 55/10/167 56/70/167
f 48/78/168 54/72/168 9/73/168
f 48/78/169 47/80/169 53/74/169
f 46/79/170 52/75/170 53/74/170
f 46/79/171 45/82/171 51/77/171
f 44/81/172 50/76/172 51/77/172
f 43/6/173 49/8/173 50/76/173
f 42/83/174 48/78/174 7/23/174
f 42/83/175 41/86/175 47/80/175
f 40/85/176 46/79/176 47/80/176
f 39/87/177 45/82/177 46/79/177
f 38/88/178 44/81/178 45/82/178
f 38/88/179 37/4/179 43/6/179
f 36/89/180 42/83/180 5/84/180
f 36/89/181 35/92/181 41/86/181
f 34/91/182 40/85/182 41/86/182
f 33/93/183 39/87/183 40/85/183
f 32/94/184 38/88/184 39/87/184
f 32/94/185 31/3/185 37/4/185
f 25/26/186 36/89/186 3/90/186
f 25/26/187 26/29/187 35/92/187
f 27/33/188 34/91/188 35/92/188
f 28/35/189 33/93/189 34/91/189
f 28/35/190 29/34/190 32/94/190
f 29/34/191 30/1/191 31/3/191
f 102/95/87 98/146/87 100/96/87
f 101/98/88 104/101/88 99/99/88
f 101/98/89 102/95/89 103/97/89
f 106/102/90 108/147/90 111/103/90
f 105/105/192 109/108/192 112/106/192
f 110/104/92 111/103/92 112/106/92
f 114/109/93 116/148/93 119/110/93
f 117/112/94 120/115/94 115/113/94
f 118/111/95 119/110/95 120/115/95
f 126/116/96 122/149/96 124/117/96
f 121/119/97 125/122/97 128/120/97
f 126/116/98 127/118/98 128/120/98
f 130/123/99 132/150/99 135/124/99
f 129/126/100 133/129/100 136/127/100
f 134/125/101 135/124/101 136/127/101
f 142/130/102 138/151/102 140/131/102
f 141/133/103 144/136/103 139/134/103
f 142/130/104 143/132/104 144/136/104
f 150/137/105 146/152/105 148/138/105
f 145/140/106 149/143/106 152/141/106
f 150/137/107 151/139/107 152/141/107
