ply
format ascii 1.0
comment Created by Blender 2.82 (sub 7) - www.blender.org, source file: 'VEHICLES01.blend'
element vertex 444
property float x
property float y
property float z
property float nx
property float ny
property float nz
property float s
property float t
element face 107
property list uchar uint vertex_indices
end_header
-12.916082 -23.209999 6.798332 0.441692 0.894475 -0.069442 0.460628 0.827363
-12.552733 -23.278629 7.855277 0.441692 0.894475 -0.069442 0.460628 0.827363
-12.491714 -23.342968 7.784800 0.441692 0.894475 -0.069442 0.460628 0.827363
-12.843389 -23.217360 6.795752 0.441692 0.894475 -0.069442 0.460628 0.827363
-12.843389 -23.217360 6.795752 0.824535 0.530081 -0.197880 0.460628 0.827363
-12.491714 -23.342968 7.784800 0.824535 0.530081 -0.197880 0.460628 0.827363
-12.473853 -23.442213 7.733210 0.824535 0.530081 -0.197880 0.460628 0.827363
-12.784254 -23.259771 6.788700 0.824535 0.530081 -0.197880 0.460628 0.827363
-12.784254 -23.259771 6.788700 0.959870 0.043536 -0.277046 0.460628 0.827363
-12.473853 -23.442213 7.733210 0.959870 0.043536 -0.277046 0.460628 0.827363
-12.503937 -23.549768 7.714331 0.959870 0.043536 -0.277046 0.460628 0.827363
-12.754523 -23.325867 6.779068 0.959870 0.043536 -0.277046 0.460628 0.827363
-12.754523 -23.325867 6.779068 0.849882 -0.432070 -0.301689 0.460628 0.827363
-12.503937 -23.549768 7.714331 0.849882 -0.432070 -0.301689 0.460628 0.827363
-12.573904 -23.636818 7.733222 0.849882 -0.432070 -0.301689 0.460628 0.827363
-12.762163 -23.397936 6.769437 0.849882 -0.432070 -0.301689 0.460628 0.827363
-12.762163 -23.397936 6.769437 0.522711 -0.807185 -0.274273 0.460628 0.827363
-12.573904 -23.636818 7.733222 0.522711 -0.807185 -0.274273 0.460628 0.827363
-12.665007 -23.680037 7.784820 0.522711 -0.807185 -0.274273 0.460628 0.827363
-12.805126 -23.456671 6.762385 0.522711 -0.807185 -0.274273 0.460628 0.827363
-12.805126 -23.456671 6.762385 0.027016 -0.981240 -0.190887 0.460628 0.827363
-12.665007 -23.680037 7.784820 0.027016 -0.981240 -0.190887 0.460628 0.827363
-12.752835 -23.667843 7.855300 0.027016 -0.981240 -0.190887 0.460628 0.827363
-12.871902 -23.486330 6.759805 0.027016 -0.981240 -0.190887 0.460628 0.827363
-12.871902 -23.486330 6.759805 -0.497823 -0.865049 -0.062148 0.460628 0.827363
-12.752835 -23.667843 7.855300 -0.497823 -0.865049 -0.062148 0.460628 0.827363
-12.813854 -23.603502 7.925777 -0.497823 -0.865049 -0.062148 0.460628 0.827363
-12.944595 -23.478970 6.762385 -0.497823 -0.865049 -0.062148 0.460628 0.827363
-12.944595 -23.478970 6.762385 -0.864021 -0.498581 0.069895 0.460628 0.827363
-12.813854 -23.603502 7.925777 -0.864021 -0.498581 0.069895 0.460628 0.827363
-12.831716 -23.504259 7.977366 -0.864021 -0.498581 0.069895 0.460628 0.827363
-13.003731 -23.436560 6.769437 -0.864021 -0.498581 0.069895 0.460628 0.827363
-13.003731 -23.436560 6.769437 -0.986268 -0.024803 0.163279 0.460628 0.827363
-12.831716 -23.504259 7.977366 -0.986268 -0.024803 0.163279 0.460628 0.827363
-12.801632 -23.396702 7.996245 -0.986268 -0.024803 0.163279 0.460628 0.827363
-13.033462 -23.370464 6.779068 -0.986268 -0.024803 0.163279 0.460628 0.827363
-13.033462 -23.370464 6.779068 -0.876325 0.438952 0.198432 0.460628 0.827363
-12.801632 -23.396702 7.996245 -0.876325 0.438952 0.198432 0.460628 0.827363
-12.731665 -23.309652 7.977355 -0.876325 0.438952 0.198432 0.460628 0.827363
-13.025822 -23.298393 6.788700 -0.876325 0.438952 0.198432 0.460628 0.827363
-12.491714 -23.342968 7.784800 0.572910 -0.294497 0.764882 0.460628 0.827363
-12.552733 -23.278629 7.855277 0.572910 -0.294497 0.764882 0.460628 0.827363
-12.640562 -23.266434 7.925757 0.572910 -0.294497 0.764882 0.460628 0.827363
-12.731665 -23.309652 7.977355 0.572910 -0.294497 0.764882 0.460628 0.827363
-12.801632 -23.396702 7.996245 0.572910 -0.294497 0.764882 0.460628 0.827363
-12.831716 -23.504259 7.977366 0.572910 -0.294497 0.764882 0.460628 0.827363
-12.813854 -23.603502 7.925777 0.572910 -0.294497 0.764882 0.460628 0.827363
-12.752835 -23.667843 7.855300 0.572910 -0.294497 0.764882 0.460628 0.827363
-12.665007 -23.680037 7.784820 0.572910 -0.294497 0.764882 0.460628 0.827363
-12.573904 -23.636818 7.733222 0.572910 -0.294497 0.764882 0.460628 0.827363
-12.503937 -23.549768 7.714331 0.572910 -0.294497 0.764882 0.460628 0.827363
-12.473853 -23.442213 7.733210 0.572910 -0.294497 0.764882 0.460628 0.827363
-13.025822 -23.298393 6.788700 -0.560966 0.810762 0.167279 0.460628 0.827363
-12.731665 -23.309652 7.977355 -0.560966 0.810762 0.167279 0.460628 0.827363
-12.640562 -23.266434 7.925757 -0.560966 0.810762 0.167279 0.460628 0.827363
-12.982858 -23.239660 6.795752 -0.560966 0.810762 0.167279 0.460628 0.827363
-12.982858 -23.239660 6.795752 -0.081692 0.994215 0.069731 0.460628 0.827363
-12.640562 -23.266434 7.925757 -0.081692 0.994215 0.069731 0.460628 0.827363
-12.552733 -23.278629 7.855277 -0.081692 0.994215 0.069731 0.460628 0.827363
-12.916082 -23.209999 6.798332 -0.081692 0.994215 0.069731 0.460628 0.827363
-12.678160 -22.976530 0.012149 -0.000000 0.000000 -1.000000 0.460628 0.827363
-12.573491 -22.971827 0.012149 -0.000000 0.000000 -1.000000 0.460628 0.827363
-12.480494 -23.020088 0.012149 -0.000000 0.000000 -1.000000 0.460628 0.827363
-12.424088 -23.108383 0.012149 -0.000000 0.000000 -1.000000 0.460628 0.827363
-12.419385 -23.213053 0.012149 -0.000000 0.000000 -1.000000 0.460628 0.827363
-12.467647 -23.306049 0.012149 -0.000000 0.000000 -1.000000 0.460628 0.827363
-12.555941 -23.362455 0.012149 -0.000000 0.000000 -1.000000 0.460628 0.827363
-12.660609 -23.367159 0.012149 -0.000000 0.000000 -1.000000 0.460628 0.827363
-12.753606 -23.318897 0.012149 -0.000000 0.000000 -1.000000 0.460628 0.827363
-12.810013 -23.230602 0.012149 -0.000000 0.000000 -1.000000 0.460628 0.827363
-12.814715 -23.125935 0.012149 -0.000000 0.000000 -1.000000 0.460628 0.827363
-12.766454 -23.032936 0.012149 -0.000000 0.000000 -1.000000 0.460628 0.827363
-12.766454 -23.032936 0.012149 -0.207349 0.977310 -0.043253 0.460628 0.827363
-12.434361 -22.877569 1.079446 -0.207349 0.977310 -0.043253 0.460628 0.827363
-12.192311 -22.864555 1.064381 -0.207349 0.977310 -0.043253 0.460628 0.827363
-12.678160 -22.976530 0.012149 -0.207349 0.977310 -0.043253 0.460628 0.827363
-12.434361 -22.877569 1.079446 -0.167506 0.951955 -0.256366 0.460628 0.827363
-13.036517 -22.673073 2.326999 -0.167506 0.951955 -0.256366 0.460628 0.827363
-12.902540 -22.623137 2.330124 -0.167506 0.951955 -0.256366 0.460628 0.827363
-12.192311 -22.864555 1.064381 -0.167506 0.951955 -0.256366 0.460628 0.827363
-13.036517 -22.673073 2.326999 -0.435630 0.828044 0.352945 0.460628 0.827363
-12.635378 -22.957941 3.445359 -0.435630 0.828044 0.352945 0.460628 0.827363
-12.536013 -22.888271 3.449634 -0.435630 0.828044 0.352945 0.460628 0.827363
-12.902540 -22.623137 2.330124 -0.435630 0.828044 0.352945 0.460628 0.827363
-12.635378 -22.957941 3.445359 -0.380965 0.920897 0.082552 0.460628 0.827363
-12.246803 -22.869595 4.575951 -0.380965 0.920897 0.082552 0.460628 0.827363
-12.165486 -22.865425 4.581796 -0.380965 0.920897 0.082552 0.460628 0.827363
-12.536013 -22.888271 3.449634 -0.380965 0.920897 0.082552 0.460628 0.827363
-12.246803 -22.869595 4.575951 -0.030904 0.925789 0.376775 0.460628 0.827363
-12.457322 -23.313410 5.658620 -0.030904 0.925789 0.376775 0.460628 0.827363
-12.408703 -23.315620 5.658620 -0.030904 0.925789 0.376775 0.460628 0.827363
-12.165486 -22.865425 4.581796 -0.030904 0.925789 0.376775 0.460628 0.827363
-12.457322 -23.313410 5.658620 -0.224016 0.958354 -0.177127 0.460628 0.827363
-12.982858 -23.239660 6.795752 -0.224016 0.958354 -0.177127 0.460628 0.827363
-12.916082 -23.209999 6.798332 -0.224016 0.958354 -0.177127 0.460628 0.827363
-12.408703 -23.315620 5.658620 -0.224016 0.958354 -0.177127 0.460628 0.827363
-12.814715 -23.125935 0.012149 -0.657809 0.750814 0.059707 0.460628 0.827363
-12.635895 -23.006697 1.120604 -0.657809 0.750814 0.059707 0.460628 0.827363
-12.434361 -22.877569 1.079446 -0.657809 0.750814 0.059707 0.460628 0.827363
-12.766454 -23.032936 0.012149 -0.657809 0.750814 0.059707 0.460628 0.827363
-12.635895 -23.006697 1.120604 -0.605499 0.692308 -0.392531 0.460628 0.827363
-13.127570 -22.782797 2.315909 -0.605499 0.692308 -0.392531 0.460628 0.827363
-13.036517 -22.673073 2.326999 -0.605499 0.692308 -0.392531 0.460628 0.827363
-12.434361 -22.877569 1.079446 -0.605499 0.692308 -0.392531 0.460628 0.827363
-13.127570 -22.782797 2.315909 -0.782743 0.465325 0.413263 0.460628 0.827363
-12.686646 -23.067398 3.433678 -0.782743 0.465325 0.413263 0.460628 0.827363
-12.635378 -22.957941 3.445359 -0.782743 0.465325 0.413263 0.460628 0.827363
-13.036517 -22.673073 2.326999 -0.782743 0.465325 0.413263 0.460628 0.827363
-12.686646 -23.067398 3.433678 -0.789323 0.579226 0.203633 0.460628 0.827363
-12.314430 -22.912437 4.559983 -0.789323 0.579226 0.203633 0.460628 0.827363
-12.246803 -22.869595 4.575951 -0.789323 0.579226 0.203633 0.460628 0.827363
-12.635378 -22.957941 3.445359 -0.789323 0.579226 0.203633 0.460628 0.827363
-12.314430 -22.912437 4.559983 -0.517999 0.823032 0.233012 0.460628 0.827363
-12.500534 -23.335806 5.658620 -0.517999 0.823032 0.233012 0.460628 0.827363
-12.457322 -23.313410 5.658620 -0.517999 0.823032 0.233012 0.460628 0.827363
-12.246803 -22.869595 4.575951 -0.517999 0.823032 0.233012 0.460628 0.827363
-12.500534 -23.335806 5.658620 -0.633215 0.701103 -0.327862 0.460628 0.827363
-13.025822 -23.298393 6.788700 -0.633215 0.701103 -0.327862 0.460628 0.827363
-12.982858 -23.239660 6.795752 -0.633215 0.701103 -0.327862 0.460628 0.827363
-12.457322 -23.313410 5.658620 -0.633215 0.701103 -0.327862 0.460628 0.827363
-12.810013 -23.230602 0.012149 -0.943407 0.320992 0.083352 0.460628 0.827363
-12.742913 -23.217339 1.176826 -0.943407 0.320992 0.083352 0.460628 0.827363
-12.635895 -23.006697 1.120604 -0.943407 0.320992 0.083352 0.460628 0.827363
-12.814715 -23.125935 0.012149 -0.943407 0.320992 0.083352 0.460628 0.827363
-12.742913 -23.217339 1.176826 -0.872396 0.279297 -0.401147 0.460628 0.827363
-13.151302 -22.922909 2.299826 -0.872396 0.279297 -0.401147 0.460628 0.827363
-13.127570 -22.782797 2.315909 -0.872396 0.279297 -0.401147 0.460628 0.827363
-12.635895 -23.006697 1.120604 -0.872396 0.279297 -0.401147 0.460628 0.827363
-13.151302 -22.922909 2.299826 -0.925310 0.000133 0.379212 0.460628 0.827363
-12.676081 -23.187311 3.417723 -0.925310 0.000133 0.379212 0.460628 0.827363
-12.686646 -23.067398 3.433678 -0.925310 0.000133 0.379212 0.460628 0.827363
-13.127570 -22.782797 2.315909 -0.925310 0.000133 0.379212 0.460628 0.827363
-12.676081 -23.187311 3.417723 -0.955743 0.070244 0.285694 0.460628 0.827363
-12.350245 -22.982477 4.538171 -0.955743 0.070244 0.285694 0.460628 0.827363
-12.314430 -22.912437 4.559983 -0.955743 0.070244 0.285694 0.460628 0.827363
-12.686646 -23.067398 3.433678 -0.955743 0.070244 0.285694 0.460628 0.827363
-12.350245 -22.982477 4.538171 -0.875344 0.482256 0.034665 0.460628 0.827363
-12.526758 -23.376806 5.658620 -0.875344 0.482256 0.034665 0.460628 0.827363
-12.500534 -23.335806 5.658620 -0.875344 0.482256 0.034665 0.460628 0.827363
-12.314430 -22.912437 4.559983 -0.875344 0.482256 0.034665 0.460628 0.827363
-12.526758 -23.376806 5.658620 -0.866667 0.293899 -0.403128 0.460628 0.827363
-13.033462 -23.370464 6.779068 -0.866667 0.293899 -0.403128 0.460628 0.827363
-13.025822 -23.298393 6.788700 -0.866667 0.293899 -0.403128 0.460628 0.827363
-12.500534 -23.335806 5.658620 -0.866667 0.293899 -0.403128 0.460628 0.827363
-12.753606 -23.318897 0.012149 -0.976457 -0.213937 0.027620 0.460628 0.827363
-12.726741 -23.453054 1.233048 -0.976457 -0.213937 0.027620 0.460628 0.827363
-12.742913 -23.217339 1.176826 -0.976457 -0.213937 0.027620 0.460628 0.827363
-12.810013 -23.230602 0.012149 -0.976457 -0.213937 0.027620 0.460628 0.827363
-12.726741 -23.453054 1.233048 -0.940551 -0.198204 -0.275825 0.460628 0.827363
-13.101355 -23.055864 2.283060 -0.940551 -0.198204 -0.275825 0.460628 0.827363
-13.151302 -22.922909 2.299826 -0.940551 -0.198204 -0.275825 0.460628 0.827363
-12.742913 -23.217339 1.176826 -0.940551 -0.198204 -0.275825 0.460628 0.827363
-13.101355 -23.055864 2.283060 -0.842004 -0.472197 0.260882 0.460628 0.827363
-12.606512 -23.285551 3.401767 -0.842004 -0.472197 0.260882 0.460628 0.827363
-12.676081 -23.187311 3.417723 -0.842004 -0.472197 0.260882 0.460628 0.827363
-13.151302 -22.922909 2.299826 -0.842004 -0.472197 0.260882 0.460628 0.827363
-12.606512 -23.285551 3.401767 -0.850837 -0.427262 0.305818 0.460628 0.827363
-12.344654 -23.060942 4.516359 -0.850837 -0.427262 0.305818 0.460628 0.827363
-12.350245 -22.982477 4.538171 -0.850837 -0.427262 0.305818 0.460628 0.827363
-12.676081 -23.187311 3.417723 -0.850837 -0.427262 0.305818 0.460628 0.827363
-12.344654 -23.060942 4.516359 -0.987560 0.000717 -0.157243 0.460628 0.827363
-12.528969 -23.425426 5.658620 -0.987560 0.000717 -0.157243 0.460628 0.827363
-12.526758 -23.376806 5.658620 -0.987560 0.000717 -0.157243 0.460628 0.827363
-12.350245 -22.982477 4.538171 -0.987560 0.000717 -0.157243 0.460628 0.827363
-12.528969 -23.425426 5.658620 -0.899825 -0.182602 -0.396197 0.460628 0.827363
-13.003731 -23.436560 6.769437 -0.899825 -0.182602 -0.396197 0.460628 0.827363
-13.033462 -23.370464 6.779068 -0.899825 -0.182602 -0.396197 0.460628 0.827363
-12.526758 -23.376806 5.658620 -0.899825 -0.182602 -0.396197 0.460628 0.827363
-12.660609 -23.367159 0.012149 -0.723097 -0.685198 -0.087374 0.460628 0.827363
-12.591710 -23.650681 1.274206 -0.723097 -0.685198 -0.087374 0.460628 0.827363
-12.726741 -23.453054 1.233048 -0.723097 -0.685198 -0.087374 0.460628 0.827363
-12.753606 -23.318897 0.012149 -0.723097 -0.685198 -0.087374 0.460628 0.827363
-12.591710 -23.650681 1.274206 -0.761003 -0.648746 -0.001939 0.460628 0.827363
-12.991110 -23.146040 2.270102 -0.761003 -0.648746 -0.001939 0.460628 0.827363
-13.101355 -23.055864 2.283060 -0.761003 -0.648746 -0.001939 0.460628 0.827363
-12.726741 -23.453054 1.233048 -0.761003 -0.648746 -0.001939 0.460628 0.827363
-12.991110 -23.146040 2.270102 -0.530099 -0.844519 0.076043 0.460628 0.827363
-12.496582 -23.335796 3.390087 -0.530099 -0.844519 0.076043 0.460628 0.827363
-12.606512 -23.285551 3.401767 -0.530099 -0.844519 0.076043 0.460628 0.827363
-13.101355 -23.055864 2.283060 -0.530099 -0.844519 0.076043 0.460628 0.827363
-12.496582 -23.335796 3.390087 -0.545708 -0.794160 0.267419 0.460628 0.827363
-12.299154 -23.126810 4.500391 -0.545708 -0.794160 0.267419 0.460628 0.827363
-12.344654 -23.060942 4.516359 -0.545708 -0.794160 0.267419 0.460628 0.827363
-12.606512 -23.285551 3.401767 -0.545708 -0.794160 0.267419 0.460628 0.827363
-12.299154 -23.126810 4.500391 -0.831435 -0.475429 -0.287548 0.460628 0.827363
-12.506573 -23.468637 5.658620 -0.831435 -0.475429 -0.287548 0.460628 0.827363
-12.528969 -23.425426 5.658620 -0.831435 -0.475429 -0.287548 0.460628 0.827363
-12.344654 -23.060942 4.516359 -0.831435 -0.475429 -0.287548 0.460628 0.827363
-12.506573 -23.468637 5.658620 -0.703735 -0.645719 -0.296317 0.460628 0.827363
-12.944595 -23.478970 6.762385 -0.703735 -0.645719 -0.296317 0.460628 0.827363
-13.003731 -23.436560 6.769437 -0.703735 -0.645719 -0.296317 0.460628 0.827363
-12.528969 -23.425426 5.658620 -0.703735 -0.645719 -0.296317 0.460628 0.827363
-12.555941 -23.362455 0.012149 -0.284485 -0.932836 -0.221101 0.460628 0.827363
-12.374003 -23.757269 1.289271 -0.284485 -0.932836 -0.221101 0.460628 0.827363
-12.591710 -23.650681 1.274206 -0.284485 -0.932836 -0.221101 0.460628 0.827363
-12.660609 -23.367159 0.012149 -0.284485 -0.932836 -0.221101 0.460628 0.827363
-12.374003 -23.757269 1.289271 -0.327632 -0.880510 0.342577 0.460628 0.827363
-12.850109 -23.169271 2.264425 -0.327632 -0.880510 0.342577 0.460628 0.827363
-12.991110 -23.146040 2.270102 -0.327632 -0.880510 0.342577 0.460628 0.827363
-12.591710 -23.650681 1.274206 -0.327632 -0.880510 0.342577 0.460628 0.827363
-12.850109 -23.169271 2.264425 -0.050399 -0.990147 -0.130649 0.460628 0.827363
-12.375746 -23.324579 3.385812 -0.050399 -0.990147 -0.130649 0.460628 0.827363
-12.496582 -23.335796 3.390087 -0.050399 -0.990147 -0.130649 0.460628 0.827363
-12.991110 -23.146040 2.270102 -0.050399 -0.990147 -0.130649 0.460628 0.827363
-12.375746 -23.324579 3.385812 -0.113419 -0.976897 0.181133 0.460628 0.827363
-12.225936 -23.162434 4.494546 -0.113419 -0.976897 0.181133 0.460628 0.827363
-12.299154 -23.126810 4.500391 -0.113419 -0.976897 0.181133 0.460628 0.827363
-12.496582 -23.335796 3.390087 -0.113419 -0.976897 0.181133 0.460628 0.827363
-12.225936 -23.162434 4.494546 -0.462718 -0.823524 -0.328177 0.460628 0.827363
-12.465572 -23.494862 5.658620 -0.462718 -0.823524 -0.328177 0.460628 0.827363
-12.506573 -23.468637 5.658620 -0.462718 -0.823524 -0.328177 0.460628 0.827363
-12.299154 -23.126810 4.500391 -0.462718 -0.823524 -0.328177 0.460628 0.827363
-12.465572 -23.494862 5.658620 -0.283875 -0.952590 -0.109483 0.460628 0.827363
-12.871902 -23.486330 6.759805 -0.283875 -0.952590 -0.109483 0.460628 0.827363
-12.944595 -23.478970 6.762385 -0.283875 -0.952590 -0.109483 0.460628 0.827363
-12.506573 -23.468637 5.658620 -0.283875 -0.952590 -0.109483 0.460628 0.827363
-12.467647 -23.306049 0.012149 0.178598 -0.923535 -0.339390 0.460628 0.827363
-12.131954 -23.744255 1.274206 0.178598 -0.923535 -0.339390 0.460628 0.827363
-12.374003 -23.757269 1.289271 0.178598 -0.923535 -0.339390 0.460628 0.827363
-12.555941 -23.362455 0.012149 0.178598 -0.923535 -0.339390 0.460628 0.827363
-12.131954 -23.744255 1.274206 0.152671 -0.802542 0.576730 0.460628 0.827363
-12.716133 -23.119333 2.267550 0.152671 -0.802542 0.576730 0.460628 0.827363
-12.850109 -23.169271 2.264425 0.152671 -0.802542 0.576730 0.460628 0.827363
-12.374003 -23.757269 1.289271 0.152671 -0.802542 0.576730 0.460628 0.827363
-12.716133 -23.119333 2.267550 0.443744 -0.847708 -0.290659 0.460628 0.827363
-12.276381 -23.254910 3.390087 0.443744 -0.847708 -0.290659 0.460628 0.827363
-12.375746 -23.324579 3.385812 0.443744 -0.847708 -0.290659 0.460628 0.827363
-12.850109 -23.169271 2.264425 0.443744 -0.847708 -0.290659 0.460628 0.827363
-12.276381 -23.254910 3.390087 0.374722 -0.925171 0.060349 0.460628 0.827363
-12.144620 -23.158262 4.500391 0.374722 -0.925171 0.060349 0.460628 0.827363
-12.225936 -23.162434 4.494546 0.374722 -0.925171 0.060349 0.460628 0.827363
-12.375746 -23.324579 3.385812 0.374722 -0.925171 0.060349 0.460628 0.827363
-12.144620 -23.158262 4.500391 0.026755 -0.961890 -0.272126 0.460628 0.827363
-12.416952 -23.497072 5.658620 0.026755 -0.961890 -0.272126 0.460628 0.827363
-12.465572 -23.494862 5.658620 0.026755 -0.961890 -0.272126 0.460628 0.827363
-12.225936 -23.162434 4.494546 0.026755 -0.961890 -0.272126 0.460628 0.827363
-12.416952 -23.497072 5.658620 0.227969 -0.968138 0.103629 0.460628 0.827363
-12.805126 -23.456671 6.762385 0.227969 -0.968138 0.103629 0.460628 0.827363
-12.871902 -23.486330 6.759805 0.227969 -0.968138 0.103629 0.460628 0.827363
-12.465572 -23.494862 5.658620 0.227969 -0.968138 0.103629 0.460628 0.827363
-12.419385 -23.213053 0.012149 0.560808 -0.709684 -0.426430 0.460628 0.827363
-11.930421 -23.615128 1.233048 0.560808 -0.709684 -0.426430 0.460628 0.827363
-12.131954 -23.744255 1.274206 0.560808 -0.709684 -0.426430 0.460628 0.827363
-12.467647 -23.306049 0.012149 0.560808 -0.709684 -0.426430 0.460628 0.827363
-11.930421 -23.615128 1.233048 0.516586 -0.550217 0.656048 0.460628 0.827363
-12.625080 -23.009609 2.278640 0.516586 -0.550217 0.656048 0.460628 0.827363
-12.716133 -23.119333 2.267550 0.516586 -0.550217 0.656048 0.460628 0.827363
-12.131954 -23.744255 1.274206 0.516586 -0.550217 0.656048 0.460628 0.827363
-12.625080 -23.009609 2.278640 0.799835 -0.482238 -0.357367 0.460628 0.827363
-12.225113 -23.145454 3.401767 0.799835 -0.482238 -0.357367 0.460628 0.827363
-12.276381 -23.254910 3.390087 0.799835 -0.482238 -0.357367 0.460628 0.827363
-12.716133 -23.119333 2.267550 0.799835 -0.482238 -0.357367 0.460628 0.827363
-12.225113 -23.145454 3.401767 0.792270 -0.606685 -0.065120 0.460628 0.827363
-12.076993 -23.115419 4.516359 0.792270 -0.606685 -0.065120 0.460628 0.827363
-12.144620 -23.158262 4.500391 0.792270 -0.606685 -0.065120 0.460628 0.827363
-12.276381 -23.254910 3.390087 0.792270 -0.606685 -0.065120 0.460628 0.827363
-12.076993 -23.115419 4.516359 0.516747 -0.846364 -0.128994 0.460628 0.827363
-12.373740 -23.474676 5.658620 0.516747 -0.846364 -0.128994 0.460628 0.827363
-12.416952 -23.497072 5.658620 0.516747 -0.846364 -0.128994 0.460628 0.827363
-12.144620 -23.158262 4.500391 0.516747 -0.846364 -0.128994 0.460628 0.827363
-12.373740 -23.474676 5.658620 0.649295 -0.712729 0.265391 0.460628 0.827363
-12.762163 -23.397936 6.769437 0.649295 -0.712729 0.265391 0.460628 0.827363
-12.805126 -23.456671 6.762385 0.649295 -0.712729 0.265391 0.460628 0.827363
-12.416952 -23.497072 5.658620 0.649295 -0.712729 0.265391 0.460628 0.827363
-12.424088 -23.108383 0.012149 0.810499 -0.347126 -0.471800 0.460628 0.827363
-11.823401 -23.404484 1.176826 0.810499 -0.347126 -0.471800 0.460628 0.827363
-11.930421 -23.615128 1.233048 0.810499 -0.347126 -0.471800 0.460628 0.827363
-12.419385 -23.213053 0.012149 0.810499 -0.347126 -0.471800 0.460628 0.827363
-11.823401 -23.404484 1.176826 0.753412 -0.209526 0.623273 0.460628 0.827363
-12.601347 -22.869497 2.294723 0.753412 -0.209526 0.623273 0.460628 0.827363
-12.625080 -23.009609 2.278640 0.753412 -0.209526 0.623273 0.460628 0.827363
-11.930421 -23.615128 1.233048 0.753412 -0.209526 0.623273 0.460628 0.827363
-12.601347 -22.869497 2.294723 0.946171 -0.008046 -0.323566 0.460628 0.827363
-12.235679 -23.025541 3.417723 0.946171 -0.008046 -0.323566 0.460628 0.827363
-12.225113 -23.145454 3.401767 0.946171 -0.008046 -0.323566 0.460628 0.827363
-12.625080 -23.009609 2.278640 0.946171 -0.008046 -0.323566 0.460628 0.827363
-12.235679 -23.025541 3.417723 0.983483 -0.100851 -0.150304 0.460628 0.827363
-12.041177 -23.045382 4.538171 0.983483 -0.100851 -0.150304 0.460628 0.827363
-12.076993 -23.115419 4.516359 0.983483 -0.100851 -0.150304 0.460628 0.827363
-12.225113 -23.145454 3.401767 0.983483 -0.100851 -0.150304 0.460628 0.827363
-12.041177 -23.045382 4.538171 0.865414 -0.496613 0.066591 0.460628 0.827363
-12.347516 -23.433676 5.658620 0.865414 -0.496613 0.066591 0.460628 0.827363
-12.373740 -23.474676 5.658620 0.865414 -0.496613 0.066591 0.460628 0.827363
-12.076993 -23.115419 4.516359 0.865414 -0.496613 0.066591 0.460628 0.827363
-12.347516 -23.433676 5.658620 0.891652 -0.296211 0.342367 0.460628 0.827363
-12.754523 -23.325867 6.779068 0.891652 -0.296211 0.342367 0.460628 0.827363
-12.762163 -23.397936 6.769437 0.891652 -0.296211 0.342367 0.460628 0.827363
-12.373740 -23.474676 5.658620 0.891652 -0.296211 0.342367 0.460628 0.827363
-12.480494 -23.020088 0.012149 0.881021 0.117854 -0.458162 0.460628 0.827363
-11.839575 -23.168770 1.120604 0.881021 0.117854 -0.458162 0.460628 0.827363
-11.823401 -23.404484 1.176826 0.881021 0.117854 -0.458162 0.460628 0.827363
-12.424088 -23.108383 0.012149 0.881021 0.117854 -0.458162 0.460628 0.827363
-11.839575 -23.168770 1.120604 0.844158 0.204439 0.495583 0.460628 0.827363
-12.651295 -22.736542 2.311489 0.844158 0.204439 0.495583 0.460628 0.827363
-12.601347 -22.869497 2.294723 0.844158 0.204439 0.495583 0.460628 0.827363
-11.823401 -23.404484 1.176826 0.844158 0.204439 0.495583 0.460628 0.827363
-12.651295 -22.736542 2.311489 0.858717 0.472112 -0.199286 0.460628 0.827363
-12.305246 -22.927299 3.433678 0.858717 0.472112 -0.199286 0.460628 0.827363
-12.235679 -23.025541 3.417723 0.858717 0.472112 -0.199286 0.460628 0.827363
-12.601347 -22.869497 2.294723 0.858717 0.472112 -0.199286 0.460628 0.827363
-12.305246 -22.927299 3.433678 0.893432 0.416147 -0.169117 0.460628 0.827363
-12.046768 -22.966915 4.559983 0.893432 0.416147 -0.169117 0.460628 0.827363
-12.041177 -23.045382 4.538171 0.893432 0.416147 -0.169117 0.460628 0.827363
-12.235679 -23.025541 3.417723 0.893432 0.416147 -0.169117 0.460628 0.827363
-12.046768 -22.966915 4.559983 0.966310 -0.018356 0.256725 0.460628 0.827363
-12.345305 -23.385056 5.658620 0.966310 -0.018356 0.256725 0.460628 0.827363
-12.347516 -23.433676 5.658620 0.966310 -0.018356 0.256725 0.460628 0.827363
-12.041177 -23.045382 4.538171 0.966310 -0.018356 0.256725 0.460628 0.827363
-12.345305 -23.385056 5.658620 0.924669 0.194334 0.327448 0.460628 0.827363
-12.784254 -23.259771 6.788700 0.924669 0.194334 0.327448 0.460628 0.827363
-12.754523 -23.325867 6.779068 0.924669 0.194334 0.327448 0.460628 0.827363
-12.347516 -23.433676 5.658620 0.924669 0.194334 0.327448 0.460628 0.827363
-12.573491 -22.971827 0.012149 0.712297 0.599437 -0.365113 0.460628 0.827363
-11.974605 -22.971142 1.079446 0.712297 0.599437 -0.365113 0.460628 0.827363
-11.839575 -23.168770 1.120604 0.712297 0.599437 -0.365113 0.460628 0.827363
-12.480494 -23.020088 0.012149 0.712297 0.599437 -0.365113 0.460628 0.827363
-11.974605 -22.971142 1.079446 0.718806 0.639342 0.273058 0.460628 0.827363
-12.761539 -22.646366 2.324447 0.718806 0.639342 0.273058 0.460628 0.827363
-12.651295 -22.736542 2.311489 0.718806 0.639342 0.273058 0.460628 0.827363
-11.839575 -23.168770 1.120604 0.718806 0.639342 0.273058 0.460628 0.827363
-12.761539 -22.646366 2.324447 0.537117 0.843476 -0.007322 0.460628 0.827363
-12.415176 -22.877056 3.445359 0.537117 0.843476 -0.007322 0.460628 0.827363
-12.305246 -22.927299 3.433678 0.537117 0.843476 -0.007322 0.460628 0.827363
-12.651295 -22.736542 2.311489 0.537117 0.843476 -0.007322 0.460628 0.827363
-12.415176 -22.877056 3.445359 0.579131 0.805362 -0.126489 0.460628 0.827363
-12.092269 -22.901047 4.575951 0.579131 0.805362 -0.126489 0.460628 0.827363
-12.046768 -22.966915 4.559983 0.579131 0.805362 -0.126489 0.460628 0.827363
-12.305246 -22.927299 3.433678 0.579131 0.805362 -0.126489 0.460628 0.827363
-12.092269 -22.901047 4.575951 0.806940 0.445519 0.387764 0.460628 0.827363
-12.367702 -23.341845 5.658620 0.806940 0.445519 0.387764 0.460628 0.827363
-12.345305 -23.385056 5.658620 0.806940 0.445519 0.387764 0.460628 0.827363
-12.046768 -22.966915 4.559983 0.806940 0.445519 0.387764 0.460628 0.827363
-12.367702 -23.341845 5.658620 0.715965 0.663984 0.215685 0.460628 0.827363
-12.843389 -23.217360 6.795752 0.715965 0.663984 0.215685 0.460628 0.827363
-12.784254 -23.259771 6.788700 0.715965 0.663984 0.215685 0.460628 0.827363
-12.345305 -23.385056 5.658620 0.715965 0.663984 0.215685 0.460628 0.827363
-12.678160 -22.976530 0.012149 0.303647 0.930500 -0.204860 0.460628 0.827363
-12.192311 -22.864555 1.064381 0.303647 0.930500 -0.204860 0.460628 0.827363
-11.974605 -22.971142 1.079446 0.303647 0.930500 -0.204860 0.460628 0.827363
-12.573491 -22.971827 0.012149 0.303647 0.930500 -0.204860 0.460628 0.827363
-12.192311 -22.864555 1.064381 0.340494 0.940204 -0.008986 0.460628 0.827363
-12.902540 -22.623137 2.330124 0.340494 0.940204 -0.008986 0.460628 0.827363
-12.761539 -22.646366 2.324447 0.340494 0.940204 -0.008986 0.460628 0.827363
-11.974605 -22.971142 1.079446 0.340494 0.940204 -0.008986 0.460628 0.827363
-12.902540 -22.623137 2.330124 0.052490 0.978423 0.199832 0.460628 0.827363
-12.536013 -22.888271 3.449634 0.052490 0.978423 0.199832 0.460628 0.827363
-12.415176 -22.877056 3.445359 0.052490 0.978423 0.199832 0.460628 0.827363
-12.761539 -22.646366 2.324447 0.052490 0.978423 0.199832 0.460628 0.827363
-12.536013 -22.888271 3.449634 0.122796 0.991737 -0.037130 0.460628 0.827363
-12.165486 -22.865425 4.581796 0.122796 0.991737 -0.037130 0.460628 0.827363
-12.092269 -22.901047 4.575951 0.122796 0.991737 -0.037130 0.460628 0.827363
-12.415176 -22.877056 3.445359 0.122796 0.991737 -0.037130 0.460628 0.827363
-12.165486 -22.865425 4.581796 0.446644 0.784163 0.430812 0.460628 0.827363
-12.408703 -23.315620 5.658620 0.446644 0.784163 0.430812 0.460628 0.827363
-12.367702 -23.341845 5.658620 0.446644 0.784163 0.430812 0.460628 0.827363
-12.092269 -22.901047 4.575951 0.446644 0.784163 0.430812 0.460628 0.827363
-12.408703 -23.315620 5.658620 0.283733 0.958561 0.025631 0.460628 0.827363
-12.916082 -23.209999 6.798332 0.283733 0.958561 0.025631 0.460628 0.827363
-12.843389 -23.217360 6.795752 0.283733 0.958561 0.025631 0.460628 0.827363
-12.367702 -23.341845 5.658620 0.283733 0.958561 0.025631 0.460628 0.827363
-13.591282 -23.295242 2.501299 0.143697 0.021211 0.989394 0.421255 0.610814
-12.951364 -23.065094 2.403425 0.143697 0.021211 0.989394 0.421255 0.610814
-12.981155 -22.863266 2.403425 0.143697 0.021211 0.989394 0.421255 0.610814
-13.660278 -22.827822 2.501299 0.143697 0.021211 0.989394 0.421255 0.610814
-14.923805 -23.398605 2.403425 -0.205616 -0.030351 0.978162 0.421255 0.610814
-14.231480 -23.413097 2.548506 -0.205616 -0.030351 0.978162 0.421255 0.610814
-14.339121 -22.683867 2.548506 -0.205616 -0.030351 0.978162 0.421255 0.610814
-14.965836 -23.113869 2.403425 -0.205616 -0.030351 0.978162 0.421255 0.610814
-14.231480 -23.413097 2.548506 0.071600 0.010569 0.997377 0.421255 0.610814
-13.591282 -23.295242 2.501299 0.071600 0.010569 0.997377 0.421255 0.610814
-13.660278 -22.827822 2.501299 0.071600 0.010569 0.997377 0.421255 0.610814
-14.339121 -22.683867 2.548506 0.071600 0.010569 0.997377 0.421255 0.610814
-12.417352 -23.894159 3.875149 0.040905 0.139376 0.989394 0.421255 0.610814
-12.358413 -23.216673 3.777275 0.040905 0.139376 0.989394 0.421255 0.610814
-12.554170 -23.159220 3.777275 0.040905 0.139376 0.989394 0.421255 0.610814
-12.870715 -23.761103 3.875149 0.040905 0.139376 0.989394 0.421255 0.610814
-12.881432 -25.147530 3.777275 -0.054850 -0.186888 0.980849 0.421255 0.610814
-12.251036 -24.571110 3.922357 -0.054850 -0.186888 0.980849 0.421255 0.610814
-12.958334 -24.363523 3.922357 -0.054850 -0.186888 0.980849 0.421255 0.610814
-13.157604 -25.066475 3.777275 -0.054850 -0.186888 0.980849 0.421255 0.610814
-12.251036 -24.571110 3.922357 0.021990 0.074925 0.996947 0.421255 0.610814
-12.417352 -23.894159 3.875149 0.021990 0.074925 0.996947 0.421255 0.610814
-12.870715 -23.761103 3.875149 0.021990 0.074925 0.996947 0.421255 0.610814
-12.958334 -24.363523 3.922357 0.021990 0.074925 0.996947 0.421255 0.610814
-11.702312 -23.651201 5.147999 -0.081996 0.119899 0.989394 0.421255 0.610814
-12.189444 -23.176683 5.050124 -0.081996 0.119899 0.989394 0.421255 0.610814
-12.357844 -23.291849 5.050124 -0.081996 0.119899 0.989394 0.421255 0.610814
-12.092319 -23.917915 5.147999 -0.081996 0.119899 0.989394 0.421255 0.610814
-11.025871 -24.803907 5.050124 0.120037 -0.175525 0.977130 0.421255 0.610814
-11.216760 -24.126799 5.195206 0.120037 -0.175525 0.977130 0.421255 0.610814
-11.825217 -24.542904 5.195206 0.120037 -0.175525 0.977130 0.421255 0.610814
-11.263451 -24.966381 5.050124 0.120037 -0.175525 0.977130 0.421255 0.610814
-11.216760 -24.126799 5.195206 -0.039872 0.058304 0.997502 0.421255 0.610814
-11.702312 -23.651201 5.147999 -0.039872 0.058304 0.997502 0.421255 0.610814
-12.092319 -23.917915 5.147999 -0.039872 0.058304 0.997502 0.421255 0.610814
-11.825217 -24.542904 5.195206 -0.039872 0.058304 0.997502 0.421255 0.610814
-11.888024 -22.476431 3.272821 -0.132998 -0.058400 0.989394 0.421255 0.610814
-12.444466 -22.867374 3.174947 -0.132998 -0.058400 0.989394 0.421255 0.610814
-12.362441 -23.054173 3.174947 -0.132998 -0.058400 0.989394 0.421255 0.610814
-11.698061 -22.909046 3.272821 -0.132998 -0.058400 0.989394 0.421255 0.610814
-10.432397 -22.024900 3.101198 0.253264 0.111210 0.960984 0.421255 0.610814
-11.330814 -21.869841 3.320029 0.253264 0.111210 0.960984 0.421255 0.610814
-11.034449 -22.544771 3.320029 0.253264 0.111210 0.960984 0.421255 0.610814
-10.316677 -22.288435 3.101198 0.253264 0.111210 0.960984 0.421255 0.610814
-11.330814 -21.869841 3.320029 -0.057208 -0.025120 0.998046 0.421255 0.610814
-11.888024 -22.476431 3.272821 -0.057208 -0.025120 0.998046 0.421255 0.610814
-11.698061 -22.909046 3.272821 -0.057208 -0.025120 0.998046 0.421255 0.610814
-11.034449 -22.544771 3.320029 -0.057208 -0.025120 0.998046 0.421255 0.610814
-13.302266 -22.745682 6.943074 0.040749 -0.139422 0.989394 0.421255 0.610814
-12.986400 -23.347919 6.845200 0.040749 -0.139422 0.989394 0.421255 0.610814
-12.790578 -23.290688 6.845200 0.040749 -0.139422 0.989394 0.421255 0.610814
-12.848754 -22.613134 6.943074 0.040749 -0.139422 0.989394 0.421255 0.610814
-13.587686 -21.315832 6.845200 -0.050932 0.174262 0.983381 0.421255 0.610814
-13.616298 -22.142906 6.990281 -0.050932 0.174262 0.983381 0.421255 0.610814
-12.908766 -21.936115 6.990281 -0.050932 0.174262 0.983381 0.421255 0.610814
-13.311422 -21.235088 6.845200 -0.050932 0.174262 0.983381 0.421255 0.610814
-13.616298 -22.142906 6.990281 0.019815 -0.067797 0.997502 0.421255 0.610814
-13.302266 -22.745682 6.943074 0.019815 -0.067797 0.997502 0.421255 0.610814
-12.848754 -22.613134 6.943074 0.019815 -0.067797 0.997502 0.421255 0.610814
-12.908766 -21.936115 6.990281 0.019815 -0.067797 0.997502 0.421255 0.610814
-13.439345 -24.059748 6.378692 0.076534 0.067774 0.994761 0.421255 0.610814
-12.670759 -23.491104 6.280817 0.076534 0.067774 0.994761 0.421255 0.610814
-12.759659 -23.390713 6.280817 0.076534 0.067774 0.994761 0.421255 0.610814
-13.752586 -23.706022 6.378692 0.076534 0.067774 0.994761 0.421255 0.610814
-14.330002 -25.005194 6.280817 -0.168792 -0.149473 0.974252 0.421255 0.610814
-13.850720 -24.600788 6.425899 -0.168792 -0.149473 0.974252 0.421255 0.610814
-14.339413 -24.048935 6.425899 -0.168792 -0.149473 0.974252 0.421255 0.610814
-14.520817 -24.789715 6.280817 -0.168792 -0.149473 0.974252 0.421255 0.610814
-13.850720 -24.600788 6.425899 0.052880 0.046828 0.997502 0.421255 0.610814
-13.439345 -24.059748 6.378692 0.052880 0.046828 0.997502 0.421255 0.610814
-13.752586 -23.706022 6.378692 0.052880 0.046828 0.997502 0.421255 0.610814
-14.339413 -24.048935 6.425899 0.052880 0.046828 0.997502 0.421255 0.610814
-12.368784 -22.298561 4.662542 -0.011974 -0.143364 0.989598 0.421255 0.610814
-12.369626 -22.974087 4.564668 -0.011974 -0.143364 0.989598 0.421255 0.610814
-12.166320 -22.991068 4.564668 -0.011974 -0.143364 0.989598 0.421255 0.610814
-11.897938 -22.337887 4.662542 -0.011974 -0.143364 0.989598 0.421255 0.610814
-12.093046 -20.977539 4.564668 0.017384 0.208138 0.977945 0.421255 0.610814
-12.524282 -21.623194 4.709749 0.017384 0.208138 0.977945 0.421255 0.610814
-11.789708 -21.684547 4.709749 0.017384 0.208138 0.977945 0.421255 0.610814
-11.806224 -21.001495 4.564668 0.017384 0.208138 0.977945 0.421255 0.610814
-12.524282 -21.623194 4.709749 -0.005937 -0.071087 0.997452 0.421255 0.610814
-12.368784 -22.298561 4.662542 -0.005937 -0.071087 0.997452 0.421255 0.610814
-11.897938 -22.337887 4.662542 -0.005937 -0.071087 0.997452 0.421255 0.610814
-11.789708 -21.684547 4.709749 -0.005937 -0.071087 0.997452 0.421255 0.610814
4 0 1 2 3
4 4 5 6 7
4 8 9 10 11
4 12 13 14 15
4 16 17 18 19
4 20 21 22 23
4 24 25 26 27
4 28 29 30 31
4 32 33 34 35
4 36 37 38 39
12 40 41 42 43 44 45 46 47 48 49 50 51
4 52 53 54 55
4 56 57 58 59
12 60 61 62 63 64 65 66 67 68 69 70 71
4 72 73 74 75
4 76 77 78 79
4 80 81 82 83
4 84 85 86 87
4 88 89 90 91
4 92 93 94 95
4 96 97 98 99
4 100 101 102 103
4 104 105 106 107
4 108 109 110 111
4 112 113 114 115
4 116 117 118 119
4 120 121 122 123
4 124 125 126 127
4 128 129 130 131
4 132 133 134 135
4 136 137 138 139
4 140 141 142 143
4 144 145 146 147
4 148 149 150 151
4 152 153 154 155
4 156 157 158 159
4 160 161 162 163
4 164 165 166 167
4 168 169 170 171
4 172 173 174 175
4 176 177 178 179
4 180 181 182 183
4 184 185 186 187
4 188 189 190 191
4 192 193 194 195
4 196 197 198 199
4 200 201 202 203
4 204 205 206 207
4 208 209 210 211
4 212 213 214 215
4 216 217 218 219
4 220 221 222 223
4 224 225 226 227
4 228 229 230 231
4 232 233 234 235
4 236 237 238 239
4 240 241 242 243
4 244 245 246 247
4 248 249 250 251
4 252 253 254 255
4 256 257 258 259
4 260 261 262 263
4 264 265 266 267
4 268 269 270 271
4 272 273 274 275
4 276 277 278 279
4 280 281 282 283
4 284 285 286 287
4 288 289 290 291
4 292 293 294 295
4 296 297 298 299
4 300 301 302 303
4 304 305 306 307
4 308 309 310 311
4 312 313 314 315
4 316 317 318 319
4 320 321 322 323
4 324 325 326 327
4 328 329 330 331
4 332 333 334 335
4 336 337 338 339
4 340 341 342 343
4 344 345 346 347
4 348 349 350 351
4 352 353 354 355
4 356 357 358 359
4 360 361 362 363
4 364 365 366 367
4 368 369 370 371
4 372 373 374 375
4 376 377 378 379
4 380 381 382 383
4 384 385 386 387
4 388 389 390 391
4 392 393 394 395
4 396 397 398 399
4 400 401 402 403
4 404 405 406 407
4 408 409 410 411
4 412 413 414 415
4 416 417 418 419
4 420 421 422 423
4 424 425 426 427
4 428 429 430 431
4 432 433 434 435
4 436 437 438 439
4 440 441 442 443
